<svg xmlns="http://www.w3.org/2000/svg" width="210.172" height="210.89" viewBox="0 0 210.172 210.89">
  <g id="Grupo_11849" data-name="Grupo 11849" transform="translate(-2413.234 -3617.538)">
    <path id="Trazado_10088" data-name="Trazado 10088" d="M2585.133,3749.131c-2.978-3.981-5.954-7.866-6.093-13.726-.342-14.442,6.083-15.152,5.162-29.58s-11.621-13.606-12.542-28.033a17.9,17.9,0,0,1,.332-4.972,36.487,36.487,0,0,0,2.708-6.056c.13-.367.25-.746.359-1.112a37.17,37.17,0,1,0-70.505,1.672c.127.362.264.712.4,1.073l.011.011a36.94,36.94,0,0,0,3,5.953,18.173,18.173,0,0,1,.557,4.928c-.236,14.456-10.952,14.142-11.188,28.6s6.216,14.86,6.558,29.3c.14,5.861-2.649,9.882-5.445,14-2.775,4.128-5.558,8.354-5.41,14.589A32.389,32.389,0,0,0,2526.2,3797.4l33.426-.793a32.381,32.381,0,0,0,31.607-33.155C2591.081,3757.212,2588.1,3753.123,2585.133,3749.131Z" fill="#40327a"/>
    <g id="Grupo_11848" data-name="Grupo 11848">
      <path id="Trazado_10089" data-name="Trazado 10089" d="M2416.451,3640.51l9.114,5.853,34.8,57.986,15.513-10.715-42.707-53.952h0l-7.448-9.408a7,7,0,1,0-9.268,10.231Z" fill="#ff95a9"/>
      <path id="Trazado_10090" data-name="Trazado 10090" d="M2461.065,3705.36a9.39,9.39,0,0,0,3.822,2.873l-.007.021,51.017,20.217,0-.012a13.136,13.136,0,0,0,1.61.534,13,13,0,1,0,6.382-25.2h0L2473.9,3691.13l-34.949-44.15-9.2,6.355,30.613,51.014.012-.008A9.452,9.452,0,0,0,2461.065,3705.36Z" fill="#ffc7bd"/>
      <path id="Trazado_10091" data-name="Trazado 10091" d="M2446.741,3683.6l1.715-1.028,12.223,20.367h0l.551.893a8.225,8.225,0,0,0,4.036,3.48l.847.346,0,.011,20.111,7.97-.737,1.859-21.831-8.651.022-.07a10.444,10.444,0,0,1-3.393-2.792c-.064-.081-.128-.165-.191-.251l-.037.025-.55-.892Z" fill="#ff95a9"/>
      <rect id="Rectángulo_4938" data-name="Rectángulo 4938" width="2" height="12.406" transform="translate(2438.326 3669.569) rotate(-30.943)" fill="#ff95a9"/>
      <rect id="Rectángulo_4939" data-name="Rectángulo 4939" width="2" height="14.813" transform="matrix(0.369, -0.929, 0.929, 0.369, 2492.279, 3720.23)" fill="#ff95a9"/>
    </g>
    <path id="Trazado_10092" data-name="Trazado 10092" d="M2511.382,3787.98l-.282-72.8a13,13,0,0,1,13.551-13.039l48.3,2.048a8,8,0,0,1,7.33,10.272l-22.435,75.487h0a23.251,23.251,0,1,1-46.46-1.97Z" fill="#ffc7bd"/>
    <path id="Trazado_10093" data-name="Trazado 10093" d="M2573.747,3828.428c0-.057.008-.112.008-.168v-10a34.631,34.631,0,0,0-13.381-27.344l-2.506-1.947h-46.5a57.645,57.645,0,0,0-6,25.6v13.7c0,.057.008.112.009.169Z" fill="#8b77e8"/>
    <path id="Trazado_10094" data-name="Trazado 10094" d="M2514.152,3670.522l3.26-31.194,37.546,1.592-.8,18.994,1,.043a5,5,0,0,1-.423,9.991l-1-.042-.269,6.344-.464,10.957-.093,2.181-.59,13.928h0l9.984.423-36.219,21.619.98-23.113,3.274.139h0l.591-13.928-1.339-.057A16.206,16.206,0,0,1,2514.152,3670.522Z" fill="#ff95a9"/>
    <path id="Trazado_10095" data-name="Trazado 10095" d="M2561.443,3803.182l9.2.17,35.345-55.712,15.228,11.116-44.029,52.87-.026-.018a4.974,4.974,0,0,1-2.276,1.533l0,.022-11.421,3.682v-.007a7,7,0,1,1-2.019-13.656Z" fill="#ff95a9"/>
    <path id="Trazado_10096" data-name="Trazado 10096" d="M2561.6,3709.268a12.915,12.915,0,0,1,19.477-1.515l.009-.01,38.3,37.244a9.438,9.438,0,0,1,2.545,12.774,9.3,9.3,0,0,1-.732.988l.011.008-38.075,45.717-9.033-6.6,27.121-42.748-37-27.667h0A13,13,0,0,1,2561.6,3709.268Z" fill="#ffc7bd"/>
    <rect id="Rectángulo_4940" data-name="Rectángulo 4940" width="2" height="37.007" transform="translate(2585.765 3713.852) rotate(-45.956)" fill="#ff95a9"/>
    <rect id="Rectángulo_4941" data-name="Rectángulo 4941" width="2" height="3.536" transform="translate(2614.793 3741.925) rotate(-44.998)" fill="#ff95a9"/>
    <rect id="Rectángulo_4942" data-name="Rectángulo 4942" width="12.717" height="2" transform="translate(2511.288 3787.963)" fill="#624ac9"/>
    <path id="Trazado_10097" data-name="Trazado 10097" d="M2554.153,3659.915l1,.042,1.224-28.859-29.74-1.261a14.234,14.234,0,0,0-14.824,13.618l-.024.566,1,.042a39.128,39.128,0,0,1,23.234,8.9h0a30.537,30.537,0,0,0,18.131,6.948Z" fill="#40327a"/>
    <path id="Trazado_10098" data-name="Trazado 10098" d="M2526.51,3674.612a15.028,15.028,0,0,0,5.74-1.132l-.759-1.85a13.01,13.01,0,0,1-5.666.964,13.224,13.224,0,0,1-2.643-.4l-.5,1.937a15.289,15.289,0,0,0,3.042.463Q2526.119,3674.611,2526.51,3674.612Z" fill="#e5659b"/>
  </g>
</svg>
