<svg xmlns="http://www.w3.org/2000/svg" width="179.969" height="179.968" viewBox="0 0 179.969 179.968">
  <g id="Grupo_9201" data-name="Grupo 9201" transform="translate(5747.24 -3301.239)">
    <path id="Trazado_2830" data-name="Trazado 2830" d="M-5567.271,3391.223q0,2.777-.169,5.509a89.984,89.984,0,0,1-84.307,84.307q-2.73.171-5.508.168t-5.509-.168a89.985,89.985,0,0,1-84.307-84.307q-.171-2.732-.169-5.509t.169-5.509a89.985,89.985,0,0,1,84.307-84.307q2.732-.171,5.509-.168t5.508.168a89.984,89.984,0,0,1,84.307,84.307q.171,2.731.169,5.509Zm0,0" fill="#5fc6ff"/>
    <path id="Trazado_2831" data-name="Trazado 2831" d="M-5614.643,3469.506v.992a89.592,89.592,0,0,1-42.612,10.709,89.832,89.832,0,0,1-28.792-4.705,89.411,89.411,0,0,1-14.17-6.2v-.8a32.284,32.284,0,0,1,23.911-31.179c.5-.132,1.01-.261,1.524-.367a31.854,31.854,0,0,1,4.2-.62c.871-.075,1.749-.107,2.642-.107h21.016a32.267,32.267,0,0,1,6.846.727c.128.022.257.051.377.08.371.085.746.177,1.11.28a.1.1,0,0,1,.029,0,32.062,32.062,0,0,1,10.02,4.651,32.237,32.237,0,0,1,13.9,26.532Zm0,0" fill="#a5d130"/>
    <path id="Trazado_2832" data-name="Trazado 2832" d="M-5614.643,3469.506v.992a89.592,89.592,0,0,1-42.612,10.709,89.832,89.832,0,0,1-28.792-4.705v-7a32.283,32.283,0,0,1,23.915-31.179c.5-.132,1.006-.261,1.519-.367a31.97,31.97,0,0,1,4.2-.62c.871-.075,1.752-.107,2.642-.107h6.846a32.267,32.267,0,0,1,6.846.727c.128.022.257.051.377.08.371.085.746.177,1.11.28a.1.1,0,0,1,.029,0,32.062,32.062,0,0,1,10.02,4.651,32.237,32.237,0,0,1,13.9,26.532Zm0,0" fill="#c0e54c"/>
    <path id="Trazado_2833" data-name="Trazado 2833" d="M-5638.48,3437.96l-.081.363-9.108,42.378a91.17,91.17,0,0,1-9.586.506,89.637,89.637,0,0,1-9.95-.548l-9.1-42.332-.082-.367Zm0,0" fill="#ffe266"/>
    <path id="Trazado_2834" data-name="Trazado 2834" d="M-5657.434,3450.444l-14.529,8.076-4.421-20.56,9.029-5.318" fill="#8ab512"/>
    <path id="Trazado_2835" data-name="Trazado 2835" d="M-5657.434,3450.444l14.531,8.076,4.42-20.56-9.029-5.318" fill="#8ab512"/>
    <path id="Trazado_2836" data-name="Trazado 2836" d="M-5700.817,3429.452v-48.675a43.131,43.131,0,0,1,2.453-14.4,43.436,43.436,0,0,1,40.933-28.987,43.4,43.4,0,0,1,6.759.526,43.382,43.382,0,0,1,26.1,14.523,43.384,43.384,0,0,1,10.534,28.341v48.675" fill="#273647"/>
    <path id="Trazado_2837" data-name="Trazado 2837" d="M-5682.97,3382.677c0,17.217,10.081,37.136,15.618,46.775h-33.466v-48.675a43.176,43.176,0,0,1,2.452-14.4,43.435,43.435,0,0,1,40.618-28.983c-13.34.334-25.222,21.734-25.222,45.286Zm0,0" fill="#151a1c"/>
    <path id="Trazado_2838" data-name="Trazado 2838" d="M-5645.914,3424.8v14.132a11.512,11.512,0,0,1-8.111,11,11.443,11.443,0,0,1-3.406.515,11.513,11.513,0,0,1-11.515-11.513V3424.8Zm0,0" fill="#ea947c"/>
    <path id="Trazado_2839" data-name="Trazado 2839" d="M-5645.914,3438.036v.9a11.512,11.512,0,0,1-8.111,11,11.507,11.507,0,0,1-8.015-9.5c.768.047,1.543.07,2.32.07a39.629,39.629,0,0,0,6.394-.513,39.2,39.2,0,0,0,7.412-1.951Zm0,0" fill="#f6c2b4"/>
    <path id="Trazado_2840" data-name="Trazado 2840" d="M-5689.018,3401.639a10.71,10.71,0,0,1-8.992,10.571,10.673,10.673,0,0,1-1.717.138,10.707,10.707,0,0,1-10.708-10.709,10.707,10.707,0,0,1,10.708-10.708,10.673,10.673,0,0,1,1.717.137,10.708,10.708,0,0,1,8.992,10.571Zm0,0" fill="#ea947c"/>
    <path id="Trazado_2841" data-name="Trazado 2841" d="M-5629.933,3387.966v36.81a39.7,39.7,0,0,1-21.1,10.5l-.195.032a39.318,39.318,0,0,1-6.2.482,39.843,39.843,0,0,1-39.842-39.841v-15.172a40.212,40.212,0,0,1,.408-5.722,25.249,25.249,0,0,0,31.731-2.042,22.584,22.584,0,0,0,5.987-9.354,26.291,26.291,0,0,0,8.224,16.412,29.4,29.4,0,0,0,20.99,7.9Zm0,0" fill="#ea947c"/>
    <path id="Trazado_2842" data-name="Trazado 2842" d="M-5629.933,3387.966v36.81a39.7,39.7,0,0,1-21.1,10.5l-.195.032a39.849,39.849,0,0,1-33.633-39.359v-15.172c0-.4.007-.805.021-1.206a24.964,24.964,0,0,0,19.71-6.558,22.581,22.581,0,0,0,5.987-9.355,26.3,26.3,0,0,0,8.224,16.413,29.4,29.4,0,0,0,20.99,7.9Zm0,0" fill="#f6c2b4"/>
    <path id="Trazado_2843" data-name="Trazado 2843" d="M-5667.686,3395.4a4.519,4.519,0,0,1-4.519,4.52,4.52,4.52,0,0,1-4.52-4.52,4.52,4.52,0,0,1,4.52-4.52,4.519,4.519,0,0,1,4.519,4.52Zm0,0" fill="#273647"/>
    <path id="Trazado_2844" data-name="Trazado 2844" d="M-5638.13,3395.4a4.52,4.52,0,0,1-4.52,4.52,4.52,4.52,0,0,1-4.52-4.52,4.52,4.52,0,0,1,4.52-4.52,4.52,4.52,0,0,1,4.52,4.52Zm0,0" fill="#273647"/>
    <path id="Trazado_2845" data-name="Trazado 2845" d="M-5652.908,3406.781h-9.041a1.949,1.949,0,0,1-1.948-1.95,1.949,1.949,0,0,1,1.948-1.949h9.041a1.949,1.949,0,0,1,1.949,1.949,1.95,1.95,0,0,1-1.949,1.95Zm0,0" fill="#ea947c"/>
    <path id="Trazado_2846" data-name="Trazado 2846" d="M-5657.428,3419.116a20.118,20.118,0,0,1-9.713-2.508,1.772,1.772,0,0,1-.7-2.407,1.771,1.771,0,0,1,2.406-.7,16.54,16.54,0,0,0,16.013,0,1.772,1.772,0,0,1,2.407.7,1.772,1.772,0,0,1-.7,2.407,20.118,20.118,0,0,1-9.713,2.508Zm0,0" fill="#ea947c"/>
    <path id="Trazado_2847" data-name="Trazado 2847" d="M-5668.608,3394.6a1.935,1.935,0,0,1-1.936,1.936,1.937,1.937,0,0,1-1.937-1.936,1.938,1.938,0,0,1,1.937-1.937,1.937,1.937,0,0,1,1.936,1.937Zm0,0" fill="#fff"/>
    <path id="Trazado_2848" data-name="Trazado 2848" d="M-5638.83,3394.6a1.935,1.935,0,0,1-1.936,1.936,1.937,1.937,0,0,1-1.938-1.936,1.938,1.938,0,0,1,1.938-1.937,1.937,1.937,0,0,1,1.936,1.937Zm0,0" fill="#fff"/>
    <path id="Trazado_2849" data-name="Trazado 2849" d="M-5651.747,3454.245v26.794q-2.73.171-5.508.168t-5.509-.168v-26.794a5.511,5.511,0,0,1,5.509-5.509,5.475,5.475,0,0,1,3.892,1.616,5.476,5.476,0,0,1,1.616,3.893Zm0,0" fill="#e53e5e"/>
    <path id="Trazado_2850" data-name="Trazado 2850" d="M-5651.747,3301.407v26.8a5.511,5.511,0,0,1-5.508,5.51,5.5,5.5,0,0,1-3.893-1.612,5.491,5.491,0,0,1-1.616-3.9v-26.8q2.732-.171,5.509-.168t5.508.168Zm0,0" fill="#e53e5e"/>
    <path id="Trazado_2851" data-name="Trazado 2851" d="M-5714.768,3391.223a5.511,5.511,0,0,1-5.509,5.509h-26.794q-.171-2.732-.169-5.509t.169-5.509h26.794a5.511,5.511,0,0,1,5.509,5.509Zm0,0" fill="#e53e5e"/>
    <path id="Trazado_2852" data-name="Trazado 2852" d="M-5567.271,3391.223q0,2.777-.169,5.509h-26.8a5.511,5.511,0,0,1-5.51-5.509,5.5,5.5,0,0,1,1.616-3.9,5.491,5.491,0,0,1,3.894-1.612h26.8q.171,2.731.169,5.509Zm0,0" fill="#e53e5e"/>
    <path id="Trazado_2853" data-name="Trazado 2853" d="M-5581.529,3385.714a76.045,76.045,0,0,0-70.218-70.218q-2.727-.2-5.508-.2c-1.851,0-3.691.066-5.509.2a76.046,76.046,0,0,0-70.222,70.218c-.132,1.818-.2,3.658-.2,5.509s.066,3.691.2,5.509a76.046,76.046,0,0,0,70.222,70.218c1.818.131,3.658.2,5.509.2s3.69-.066,5.508-.2a76.045,76.045,0,0,0,70.218-70.218c.132-1.818.2-3.658.2-5.509s-.066-3.691-.2-5.509Zm-70.218,70.184c-1.813.154-3.653.232-5.508.232s-3.7-.078-5.509-.232a65.016,65.016,0,0,1-59.17-59.166q-.231-2.727-.231-5.509c0-1.855.077-3.695.231-5.509a65.02,65.02,0,0,1,59.17-59.166c1.814-.154,3.654-.232,5.509-.232s3.695.078,5.508.232a65.019,65.019,0,0,1,59.167,59.166c.154,1.814.232,3.654.232,5.509s-.078,3.691-.232,5.509a65.016,65.016,0,0,1-59.167,59.166Zm0,0" fill="#dd2a44"/>
  </g>
</svg>
