<svg xmlns="http://www.w3.org/2000/svg" width="260.579" height="259.403" viewBox="0 0 260.579 259.403">
  <g id="Grupo_10410" data-name="Grupo 10410" transform="translate(-2285.335 -1921.708)">
    <path id="Trazado_4893" data-name="Trazado 4893" d="M2518.829,1982.471a125.7,125.7,0,0,0-210.44-4.273l-1.364-.931a127.348,127.348,0,0,1,213.205,4.328l-1.4.876" fill="#6bc4ed"/>
    <path id="Trazado_4894" data-name="Trazado 4894" d="M2497.512,2143.536l-1.108-1.228a125.765,125.765,0,0,0,40.37-109.777c-.371-2.8-.839-5.612-1.392-8.365l1.622-.325c.559,2.789,1.031,5.639,1.407,8.473a127.424,127.424,0,0,1-40.9,111.222" fill="#6bc4ed"/>
    <path id="Trazado_4895" data-name="Trazado 4895" d="M2429.378,2180a127.383,127.383,0,0,1-139.023-161.654l1.587.46a125.731,125.731,0,0,0,137.218,159.556,126.177,126.177,0,0,0,30.1-7.838l.61,1.537a127.828,127.828,0,0,1-30.5,7.939" fill="#6bc4ed"/>
    <path id="Trazado_4896" data-name="Trazado 4896" d="M2406.61,1972.972a76,76,0,1,0,85.311,65.368,76.083,76.083,0,0,0-85.311-65.368m23.581,178.172a103.729,103.729,0,1,1,89.223-116.443,103.846,103.846,0,0,1-89.223,116.443" fill="#6bc4ed"/>
    <path id="Trazado_4897" data-name="Trazado 4897" d="M2515.113,2003.257a15.4,15.4,0,1,0,15.4-15.4,15.4,15.4,0,0,0-15.4,15.4" fill="#6bc4ed"/>
    <path id="Trazado_4898" data-name="Trazado 4898" d="M2464.61,2158.8a15.4,15.4,0,1,0,15.4-15.4,15.4,15.4,0,0,0-15.4,15.4Z" fill="#6bc4ed"/>
    <path id="Trazado_4899" data-name="Trazado 4899" d="M2285.931,1999.975a15.4,15.4,0,1,0,15.4-15.4,15.4,15.4,0,0,0-15.4,15.4Z" fill="#6bc4ed"/>
    <path id="Trazado_4900" data-name="Trazado 4900" d="M2304.594,2008.624h4.57v-14.309h-4.57v14.309Z" fill="#fff"/>
    <path id="Trazado_4901" data-name="Trazado 4901" d="M2298.727,2008.624h4.568v-10.732h-4.568v10.732Z" fill="#fff"/>
    <path id="Trazado_4902" data-name="Trazado 4902" d="M2292.858,2008.624h4.569v-7.154h-4.569v7.154Z" fill="#fff"/>
    <path id="Trazado_4903" data-name="Trazado 4903" d="M2294.349,1997.546l-.368-.667,11.842-6.538.368.665-11.842,6.54Z" fill="#fff"/>
    <path id="Trazado_4904" data-name="Trazado 4904" d="M2304.55,1990.341l1.276,1.575.743-1.812-2.019.237Z" fill="#fff"/>
    <path id="Trazado_4905" data-name="Trazado 4905" d="M2534,2005.922a1.66,1.66,0,0,0-.472-1.236,5.017,5.017,0,0,0-1.83-.94v4.128q2.3-.32,2.3-1.952Zm-5.805-6.591a1.769,1.769,0,0,0,.477,1.294,4.6,4.6,0,0,0,1.656.923v-4.107a3.036,3.036,0,0,0-1.593.664,1.582,1.582,0,0,0-.54,1.226Zm7.611,6.453a3.016,3.016,0,0,1-1.083,2.382,5.558,5.558,0,0,1-3.025,1.182v2.464h-1.37v-2.367a14.069,14.069,0,0,1-2.3-.185,7.269,7.269,0,0,1-1.825-.515v-1.656a10.375,10.375,0,0,0,2.031.642,9.945,9.945,0,0,0,2.1.249v-4.67a7.328,7.328,0,0,1-3.052-1.6,3.264,3.264,0,0,1-.876-2.356,2.837,2.837,0,0,1,1.078-2.282,5.235,5.235,0,0,1,2.85-1.081v-1.932h1.37v1.91a10.809,10.809,0,0,1,3.769.784l-.554,1.391a10.788,10.788,0,0,0-3.215-.743v4.608a12.064,12.064,0,0,1,2.495,1.034,3.475,3.475,0,0,1,1.218,1.157,3.014,3.014,0,0,1,.4,1.587Z" fill="#fff"/>
    <path id="Trazado_4906" data-name="Trazado 4906" d="M2479.729,2161.036a2.391,2.391,0,1,1,0-4.783v.942a1.451,1.451,0,1,0,1.453,1.451h.94a2.392,2.392,0,0,1-2.393,2.39Z" fill="#fff"/>
    <path id="Trazado_4907" data-name="Trazado 4907" d="M2479.729,2164.019a5.373,5.373,0,0,1,0-10.745,5.314,5.314,0,0,1,2.418.573l-.424.838a4.379,4.379,0,0,0-1.994-.47,4.423,4.423,0,1,0,4.017,2.555l.853-.4a5.376,5.376,0,0,1-4.87,7.648Z" fill="#fff"/>
    <path id="Trazado_4908" data-name="Trazado 4908" d="M2479.729,2167a8.354,8.354,0,1,1,4.225-15.564l-.477.812a7.407,7.407,0,1,0,2.571,2.518l.8-.491a8.354,8.354,0,0,1-7.119,12.725Z" fill="#fff"/>
    <path id="Trazado_4909" data-name="Trazado 4909" d="M2480.062,2158.979l-.665-.665,7.922-7.923.665.664-7.922,7.924Z" fill="#fff"/>
    <path id="Trazado_4910" data-name="Trazado 4910" d="M2486.523,2151.4l-.107-2.4.939-.043.109,2.4-.942.042Z" fill="#fff"/>
    <path id="Trazado_4911" data-name="Trazado 4911" d="M2485.325,2152.591l-.088-1.965.941-.04.087,1.961-.94.043Z" fill="#fff"/>
    <path id="Trazado_4912" data-name="Trazado 4912" d="M2486.806,2151.745l-.137-.934,2.378-.346.135.929-2.376.35Z" fill="#fff"/>
    <path id="Trazado_4913" data-name="Trazado 4913" d="M2485.863,2153.145l-.136-.933,1.944-.282.136.931-1.944.285Z" fill="#fff"/>
    <path id="Trazado_4914" data-name="Trazado 4914" d="M2321.478,2140.174h-2.268q-1.214-1.308-2.392-2.653h2.21q1.207,1.347,2.45,2.653" fill="#329e8d"/>
    <path id="Trazado_4915" data-name="Trazado 4915" d="M2515.482,2006.626a15.569,15.569,0,0,1,0-6.738v6.738" fill="#329e8d"/>
    <path id="Trazado_4916" data-name="Trazado 4916" d="M2503.956,2087.843a3.759,3.759,0,0,1-3.76,3.759H2332.442a3.758,3.758,0,0,1-3.76-3.759V1981.624a3.76,3.76,0,0,1,3.76-3.761H2500.2a3.761,3.761,0,0,1,3.76,3.761v106.219" fill="#fff"/>
    <path id="Trazado_4917" data-name="Trazado 4917" d="M2503.956,1981.624a3.761,3.761,0,0,0-3.76-3.761H2332.442a3.76,3.76,0,0,0-3.76,3.761v51.1l175.274-51.1" fill="#fff"/>
    <path id="Trazado_4918" data-name="Trazado 4918" d="M2496.817,2084.26h-161v-99.721h161v99.721" fill="#32b9ff"/>
    <path id="Trazado_4919" data-name="Trazado 4919" d="M2496.817,2029.9v-4.08l.147,4.045-.147.035" fill="azure"/>
    <path id="Trazado_4920" data-name="Trazado 4920" d="M2335.839,2068.4l.02-36.313,6.618-.7v35.425l-6.638,1.588m158.694-37.956v-15.125l1.893-.2.391,10.7v4.08l-2.284.547" fill="#8adcff"/>
    <path id="Trazado_4921" data-name="Trazado 4921" d="M2494.533,1977.863h-1.863l-.022-.024h1.885v.024" fill="#28a7b2"/>
    <path id="Trazado_4922" data-name="Trazado 4922" d="M2492.67,1977.863h-1.8v-.024h1.776l.022.024" fill="#33bcc9"/>
    <path id="Trazado_4923" data-name="Trazado 4923" d="M2494.533,1984.539h-.577l.577-.168v.168" fill="#aacaf9"/>
    <path id="Trazado_4924" data-name="Trazado 4924" d="M2493.956,1984.539h-3.084v-6.677h3.661v6.509l-.577.168" fill="#aacaf9"/>
    <path id="Trazado_4925" data-name="Trazado 4925" d="M2487.369,2081.035H2353.655a7.163,7.163,0,0,1-7.163-7.162v-.391a7.156,7.156,0,0,0,3.164.733h134.038a7.177,7.177,0,0,0,7.178-7.178v-35.72l3.661-.875v43.431a7.162,7.162,0,0,1-7.164,7.162m3.5-65.331v-31.165h3.661v30.778l-3.661.387" fill="#2193f9"/>
    <path id="Trazado_4926" data-name="Trazado 4926" d="M2490.872,2031.317V2015.7l3.661-.387v15.125l-3.661.876" fill="#5caef9"/>
    <path id="Trazado_4927" data-name="Trazado 4927" d="M2520.093,2131.768c1.513,4.216-.489,5.753-2.365,5.753H2314.909c-1.875,0-2.362-1.281-2.362-3.173l.05-2.785c.7-1.737,17.619-36.549,19.493-36.549h168.46a5.471,5.471,0,0,1,4.684,3.161l14.859,33.593" fill="#283042"/>
    <path id="Trazado_4928" data-name="Trazado 4928" d="M2517.728,2137.521H2314.909c-1.875,0-2.362-1.281-2.362-3.173l.034-1.9a2.142,2.142,0,0,0,2.328,1.668h202.819a2.093,2.093,0,0,0,2.339-2.405l.026.057a7.969,7.969,0,0,1,.533,2.643,2.811,2.811,0,0,1-2.9,3.11" fill="#1e2535"/>
    <path id="Trazado_4929" data-name="Trazado 4929" d="M2519.86,2130.953a2.142,2.142,0,0,1-2.132,3.163H2314.909a2.144,2.144,0,0,1-2.133-3.163l14.626-36.188a5.48,5.48,0,0,1,4.688-3.163h168.46a5.473,5.473,0,0,1,4.684,3.163l14.626,36.188" fill="#fff"/>
    <path id="Trazado_4930" data-name="Trazado 4930" d="M2435.421,2130.629h-38.206l1.176-8.711h35.991l1.038,8.711" fill="#fff"/>
    <path id="Trazado_4931" data-name="Trazado 4931" d="M2436.771,2131.726h-40.9l1.4-9.362h1.06l-1.116,8.265h38.206l-.985-8.265h.929l1.406,9.362" fill="#8e95a6"/>
    <path id="Trazado_4932" data-name="Trazado 4932" d="M2435.421,2130.629h-38.206l1.116-8.265h36.1l.985,8.265" fill="#bec3ce"/>
    <path id="Trazado_4933" data-name="Trazado 4933" d="M2385.347,2100.538H2372.06l.073-.683h13.215l.171-3.475h.034l-.2,4.158" fill="#4f576c"/>
    <path id="Trazado_4934" data-name="Trazado 4934" d="M2398.983,2100.538H2386.03l.033-.683h12.919l.168-3.475h.033l-.2,4.158" fill="#4f576c"/>
    <path id="Trazado_4935" data-name="Trazado 4935" d="M2412.121,2100.538h-12.457l.033-.683h12.424l.062-3.475h.012l-.074,4.158" fill="#4f576c"/>
    <path id="Trazado_4936" data-name="Trazado 4936" d="M2340.5,2105.31h-10.413l.252-.684H2340.5l.908-3.407h.182l-1.09,4.091" fill="#4f576c"/>
    <path id="Trazado_4937" data-name="Trazado 4937" d="M2426.457,2100.538H2412.8l.012-.683h13.642l.052-3.475h.01l-.063,4.158" fill="#4f576c"/>
    <path id="Trazado_4938" data-name="Trazado 4938" d="M2341.771,2100.538h-9.924l.252-.683h9.671l.926-3.475h.183l-1.109,4.158" fill="#4f576c"/>
    <path id="Trazado_4939" data-name="Trazado 4939" d="M2371.375,2100.538h-14.721l.119-.683h14.6l.365-3.475h.072l-.437,4.158" fill="#4f576c"/>
    <path id="Trazado_4940" data-name="Trazado 4940" d="M2355.962,2100.538h-13.486l.183-.683h13.3l.605-3.475h.12l-.725,4.158" fill="#4f576c"/>
    <path id="Trazado_4941" data-name="Trazado 4941" d="M2465.923,2100.538H2453.35l-.153-4.158h.025l.128,3.475h12.513l.06.683" fill="#4f576c"/>
    <path id="Trazado_4942" data-name="Trazado 4942" d="M2502.195,2105.31h-10.066l-1.087-4.091h.181l.906,3.407h9.79l.276.684" fill="#4f576c"/>
    <path id="Trazado_4943" data-name="Trazado 4943" d="M2504.685,2111.444h-10.928l-1.447-5.454h.181l1.266,4.77h10.65l.278.684" fill="#4f576c"/>
    <path id="Trazado_4944" data-name="Trazado 4944" d="M2338.869,2111.444h-11.043l.252-.684h10.791l1.27-4.77h.181l-1.451,5.454" fill="#4f576c"/>
    <path id="Trazado_4945" data-name="Trazado 4945" d="M2490.156,2100.538H2480.02l-.681-4.158h.113l.569,3.475h9.955l.182.683" fill="#4f576c"/>
    <path id="Trazado_4946" data-name="Trazado 4946" d="M2479.329,2100.538h-12.722l-.361-4.158h.06l.3,3.475h12.61l.112.683" fill="#4f576c"/>
    <path id="Trazado_4947" data-name="Trazado 4947" d="M2500.26,2100.538h-9.4l-1.105-4.158h.183l.923,3.475h9.121l.278.683" fill="#4f576c"/>
    <path id="Trazado_4948" data-name="Trazado 4948" d="M2439.561,2100.538h-12.422l.01-.683h12.4l.008.683" fill="#4f576c"/>
    <path id="Trazado_4949" data-name="Trazado 4949" d="M2452.667,2100.538h-12.425l-.043-4.158h.007l.036,3.475h12.4l.025.683" fill="#4f576c"/>
    <path id="Trazado_4950" data-name="Trazado 4950" d="M2426.386,2105.31h-13.669l.012-.684h13.657l.05-3.407h.01l-.06,4.091" fill="#4f576c"/>
    <path id="Trazado_4951" data-name="Trazado 4951" d="M2412.035,2105.31h-12.6l.033-.684h12.57l.062-3.407h.012l-.074,4.091" fill="#4f576c"/>
    <path id="Trazado_4952" data-name="Trazado 4952" d="M2452.839,2105.31h-12.544l-.043-4.091h.007l.036,3.407h12.52l.024.684" fill="#4f576c"/>
    <path id="Trazado_4953" data-name="Trazado 4953" d="M2337.6,2116.217h-11.536l.252-.683H2337.6l.906-3.408h.181l-1.087,4.091" fill="#4f576c"/>
    <path id="Trazado_4954" data-name="Trazado 4954" d="M2385.115,2105.31h-13.555l.072-.684h13.483l.167-3.407h.033l-.2,4.091" fill="#4f576c"/>
    <path id="Trazado_4955" data-name="Trazado 4955" d="M2398.749,2105.31H2385.8l.033-.684h12.918l.167-3.407h.033l-.2,4.091" fill="#4f576c"/>
    <path id="Trazado_4956" data-name="Trazado 4956" d="M2439.613,2105.31h-12.545l.01-.684h12.528l.007.684" fill="#4f576c"/>
    <path id="Trazado_4957" data-name="Trazado 4957" d="M2466.875,2111.444h-13.131l-.2-5.454h.025l.175,4.77h13.071l.06.684" fill="#4f576c"/>
    <path id="Trazado_4958" data-name="Trazado 4958" d="M2453.061,2111.444h-12.7l-.059-5.454h.008l.052,4.77h12.675l.025.684" fill="#4f576c"/>
    <path id="Trazado_4959" data-name="Trazado 4959" d="M2466.34,2105.31h-12.816l-.15-4.091h.025l.125,3.407h12.757l.06.684" fill="#4f576c"/>
    <path id="Trazado_4960" data-name="Trazado 4960" d="M2481.114,2111.444h-13.556l-.475-5.454h.059l.416,4.77H2481l.111.684" fill="#4f576c"/>
    <path id="Trazado_4961" data-name="Trazado 4961" d="M2491.423,2105.31H2480.8l-.67-4.091h.112l.559,3.407h10.441l.181.684" fill="#4f576c"/>
    <path id="Trazado_4962" data-name="Trazado 4962" d="M2439.679,2111.444h-12.7l.01-.684h12.684l.008.684" fill="#4f576c"/>
    <path id="Trazado_4963" data-name="Trazado 4963" d="M2480.11,2105.31h-13.085l-.359-4.091h.06l.3,3.407H2480l.112.684" fill="#4f576c"/>
    <path id="Trazado_4964" data-name="Trazado 4964" d="M2370.873,2105.31h-15.05l.119-.684h14.93l.358-3.407h.072l-.43,4.091" fill="#4f576c"/>
    <path id="Trazado_4965" data-name="Trazado 4965" d="M2426.225,2116.217h-13.7l.012-.683h13.69l.053-3.408h.01l-.064,4.091" fill="#4f576c"/>
    <path id="Trazado_4966" data-name="Trazado 4966" d="M2384.58,2116.217h-14.17l.072-.683h14.1l.168-3.408h.033l-.2,4.091" fill="#4f576c"/>
    <path id="Trazado_4967" data-name="Trazado 4967" d="M2494.321,2116.217h-11.736l-.666-4.091h.111l.555,3.408h11.554l.182.683" fill="#4f576c"/>
    <path id="Trazado_4968" data-name="Trazado 4968" d="M2439.73,2116.217h-12.823l.01-.683h12.806l.007.683" fill="#4f576c"/>
    <path id="Trazado_4969" data-name="Trazado 4969" d="M2467.29,2116.217h-13.371l-.15-4.091h.025l.124,3.408h13.312l.06.683" fill="#4f576c"/>
    <path id="Trazado_4970" data-name="Trazado 4970" d="M2481.895,2116.217h-13.921l-.356-4.091h.06l.3,3.408h13.809l.112.683" fill="#4f576c"/>
    <path id="Trazado_4971" data-name="Trazado 4971" d="M2354.062,2111.444h-14.488l.182-.684h14.306l.833-4.77h.119l-.951,5.454" fill="#4f576c"/>
    <path id="Trazado_4972" data-name="Trazado 4972" d="M2355.131,2105.31h-13.924l.182-.684h13.742l.593-3.407h.119l-.712,4.091" fill="#4f576c"/>
    <path id="Trazado_4973" data-name="Trazado 4973" d="M2369.726,2116.217h-15.8l.119-.683h15.683l.356-3.408h.071l-.427,4.091" fill="#4f576c"/>
    <path id="Trazado_4974" data-name="Trazado 4974" d="M2353.232,2116.217H2338.3l.182-.683h14.746l.592-3.408h.119l-.711,4.091" fill="#4f576c"/>
    <path id="Trazado_4975" data-name="Trazado 4975" d="M2506.623,2116.217h-11.6l-1.088-4.091h.181l.906,3.408h11.32l.278.683" fill="#4f576c"/>
    <path id="Trazado_4976" data-name="Trazado 4976" d="M2336.313,2121.046h-12.031l.253-.684h11.778l.923-3.463h.182l-1.1,4.147" fill="#4f576c"/>
    <path id="Trazado_4977" data-name="Trazado 4977" d="M2482.685,2121.046H2468.4l-.36-4.147h.06l.3,3.463h14.177l.112.684" fill="#4f576c"/>
    <path id="Trazado_4978" data-name="Trazado 4978" d="M2384.813,2111.444h-13.9l.072-.684h13.829l.234-4.77h.034l-.268,5.454" fill="#4f576c"/>
    <path id="Trazado_4979" data-name="Trazado 4979" d="M2493.051,2111.444H2481.8l-.892-5.454h.111l.781,4.77h11.066l.181.684" fill="#4f576c"/>
    <path id="Trazado_4980" data-name="Trazado 4980" d="M2495.6,2121.046h-12.224l-.68-4.147h.112l.568,3.463h12.042l.182.684" fill="#4f576c"/>
    <path id="Trazado_4981" data-name="Trazado 4981" d="M2508.582,2121.046h-12.275l-1.1-4.147h.181l.918,3.463h12l.278.684" fill="#4f576c"/>
    <path id="Trazado_4982" data-name="Trazado 4982" d="M2411.84,2116.217H2398.9l.033-.683h12.907l.061-3.408h.012l-.073,4.091" fill="#4f576c"/>
    <path id="Trazado_4983" data-name="Trazado 4983" d="M2398.216,2116.217h-12.953l.033-.683h12.919l.166-3.408h.033l-.2,4.091" fill="#4f576c"/>
    <path id="Trazado_4984" data-name="Trazado 4984" d="M2370.228,2111.444h-15.474l.119-.684h15.355l.5-4.77h.072l-.573,5.454" fill="#4f576c"/>
    <path id="Trazado_4985" data-name="Trazado 4985" d="M2369.217,2121.046H2353.08l.12-.684h16.018l.365-3.463h.072l-.437,4.147" fill="#4f576c"/>
    <path id="Trazado_4986" data-name="Trazado 4986" d="M2352.388,2121.046h-15.37l.182-.684h15.188l.6-3.463h.119l-.724,4.147" fill="#4f576c"/>
    <path id="Trazado_4987" data-name="Trazado 4987" d="M2411.927,2111.444h-12.8l.033-.684h12.762l.084-4.77h.012l-.1,5.454" fill="#4f576c"/>
    <path id="Trazado_4988" data-name="Trazado 4988" d="M2453.234,2116.217h-12.823l-.043-4.091h.007l.036,3.408h12.8l.024.683" fill="#4f576c"/>
    <path id="Trazado_4989" data-name="Trazado 4989" d="M2439.783,2121.046h-12.946l.01-.684h12.928l.008.684" fill="#4f576c"/>
    <path id="Trazado_4990" data-name="Trazado 4990" d="M2453.41,2121.046h-12.945l-.047-4.147h.008l.04,3.463h12.92l.025.684" fill="#4f576c"/>
    <path id="Trazado_4991" data-name="Trazado 4991" d="M2426.154,2121.046H2369.9l.072-.684h56.18l.052-3.463h.01l-.062,4.147" fill="#4f576c"/>
    <path id="Trazado_4992" data-name="Trazado 4992" d="M2467.711,2121.046h-13.619l-.151-4.147h.025l.126,3.463h13.56l.06.684" fill="#4f576c"/>
    <path id="Trazado_4993" data-name="Trazado 4993" d="M2398.448,2111.444H2385.5l.033-.684h12.917l.234-4.77h.033l-.268,5.454" fill="#4f576c"/>
    <path id="Trazado_4994" data-name="Trazado 4994" d="M2426.3,2111.444h-13.69l.012-.684H2426.3l.07-4.77h.01l-.08,5.454" fill="#4f576c"/>
    <path id="Trazado_4995" data-name="Trazado 4995" d="M2372.132,2099.855h-.073l.44-4.162h13.052l-.034.687H2372.5l-.367,3.475" fill="#d3d4d7"/>
    <path id="Trazado_4996" data-name="Trazado 4996" d="M2385.347,2099.855h-13.215l.367-3.475h13.018l-.171,3.475" fill="#7b818e"/>
    <path id="Trazado_4997" data-name="Trazado 4997" d="M2386.064,2099.855h-.033l.2-4.162h12.95l-.033.687h-12.917l-.17,3.475" fill="#d3d4d7"/>
    <path id="Trazado_4998" data-name="Trazado 4998" d="M2398.983,2099.855h-12.919l.17-3.475h12.917l-.168,3.475" fill="#7b818e"/>
    <path id="Trazado_4999" data-name="Trazado 4999" d="M2399.7,2099.855h-.033l.2-4.162H2412.2l-.012.687h-12.315l-.171,3.475" fill="#d3d4d7"/>
    <path id="Trazado_5000" data-name="Trazado 5000" d="M2412.121,2099.855H2399.7l.171-3.475h12.315l-.062,3.475" fill="#7b818e"/>
    <path id="Trazado_5001" data-name="Trazado 5001" d="M2330.34,2104.626h-.252l1.51-4.088h9.993l-.182.681H2331.6l-1.257,3.407" fill="#d3d4d7"/>
    <path id="Trazado_5002" data-name="Trazado 5002" d="M2340.5,2104.626H2330.34l1.257-3.407h9.811l-.908,3.407" fill="#7b818e"/>
    <path id="Trazado_5003" data-name="Trazado 5003" d="M2412.815,2099.855h-.012l.074-4.162h13.644l-.01.687h-13.633l-.062,3.475" fill="#d3d4d7"/>
    <path id="Trazado_5004" data-name="Trazado 5004" d="M2426.457,2099.855h-13.642l.062-3.475h13.633l-.052,3.475" fill="#7b818e"/>
    <path id="Trazado_5005" data-name="Trazado 5005" d="M2332.1,2099.855h-.252l1.537-4.162h9.5l-.183.687h-9.313l-1.285,3.475" fill="#d3d4d7"/>
    <path id="Trazado_5006" data-name="Trazado 5006" d="M2341.771,2099.855H2332.1l1.285-3.475h9.313l-.926,3.475" fill="#7b818e"/>
    <path id="Trazado_5007" data-name="Trazado 5007" d="M2356.774,2099.855h-.119l.725-4.162h14.433l-.072.687h-14.361l-.605,3.475" fill="#d3d4d7"/>
    <path id="Trazado_5008" data-name="Trazado 5008" d="M2371.375,2099.855h-14.6l.605-3.475h14.361l-.365,3.475" fill="#7b818e"/>
    <path id="Trazado_5009" data-name="Trazado 5009" d="M2342.659,2099.855h-.183l1.109-4.162h13.1l-.12.687h-12.982l-.926,3.475" fill="#d3d4d7"/>
    <path id="Trazado_5010" data-name="Trazado 5010" d="M2355.962,2099.855h-13.3l.926-3.475h12.982l-.605,3.475" fill="#7b818e"/>
    <path id="Trazado_5011" data-name="Trazado 5011" d="M2465.923,2099.855h-.06l-.3-3.475h-12.338l-.025-.687h12.363l.362,4.162" fill="#d3d4d7"/>
    <path id="Trazado_5012" data-name="Trazado 5012" d="M2465.863,2099.855H2453.35l-.128-3.475h12.338l.3,3.475" fill="#7b818e"/>
    <path id="Trazado_5013" data-name="Trazado 5013" d="M2502.195,2104.626h-.276l-1.38-3.407h-9.315l-.181-.681h9.5l1.656,4.088" fill="#d3d4d7"/>
    <path id="Trazado_5014" data-name="Trazado 5014" d="M2501.918,2104.626h-9.79l-.906-3.407h9.315l1.38,3.407" fill="#7b818e"/>
    <path id="Trazado_5015" data-name="Trazado 5015" d="M2504.685,2110.76h-.278l-1.935-4.77h-9.982l-.181-.68h10.163l2.213,5.45" fill="#d3d4d7"/>
    <path id="Trazado_5016" data-name="Trazado 5016" d="M2504.407,2110.76h-10.65l-1.266-4.77h9.982l1.935,4.77" fill="#7b818e"/>
    <path id="Trazado_5017" data-name="Trazado 5017" d="M2328.078,2110.76h-.252l2.01-5.45h10.484l-.181.68h-10.3l-1.758,4.77" fill="#d3d4d7"/>
    <path id="Trazado_5018" data-name="Trazado 5018" d="M2338.869,2110.76h-10.791l1.758-4.77h10.3l-1.27,4.77" fill="#7b818e"/>
    <path id="Trazado_5019" data-name="Trazado 5019" d="M2490.156,2099.855h-.182l-.924-3.475h-9.6l-.113-.687h9.712l1.106,4.162" fill="#d3d4d7"/>
    <path id="Trazado_5020" data-name="Trazado 5020" d="M2489.975,2099.855h-9.955l-.569-3.475h9.6l.924,3.475" fill="#7b818e"/>
    <path id="Trazado_5021" data-name="Trazado 5021" d="M2479.329,2099.855h-.112l-.567-3.475h-12.345l-.06-.687h12.4l.678,4.162" fill="#d3d4d7"/>
    <path id="Trazado_5022" data-name="Trazado 5022" d="M2479.218,2099.855h-12.61l-.3-3.475h12.345l.567,3.475" fill="#7b818e"/>
    <path id="Trazado_5023" data-name="Trazado 5023" d="M2500.26,2099.855h-.278l-1.412-3.475h-8.632l-.183-.687h8.814l1.69,4.162" fill="#d3d4d7"/>
    <path id="Trazado_5024" data-name="Trazado 5024" d="M2499.982,2099.855h-9.121l-.923-3.475h8.632l1.412,3.475" fill="#7b818e"/>
    <path id="Trazado_5025" data-name="Trazado 5025" d="M2439.561,2099.855h-.008l-.038-3.475H2427.2l-.051,3.475h-.01l.061-4.162h12.317l.045,4.162" fill="#d3d4d7"/>
    <path id="Trazado_5026" data-name="Trazado 5026" d="M2439.553,2099.855h-12.4l.051-3.475h12.317l.038,3.475" fill="#7b818e"/>
    <path id="Trazado_5027" data-name="Trazado 5027" d="M2452.667,2099.855h-.025l-.126-3.475h-12.31l-.007-.687h12.317l.15,4.162" fill="#d3d4d7"/>
    <path id="Trazado_5028" data-name="Trazado 5028" d="M2452.642,2099.855h-12.4l-.036-3.475h12.31l.126,3.475" fill="#7b818e"/>
    <path id="Trazado_5029" data-name="Trazado 5029" d="M2412.729,2104.626h-.012l.074-4.088h13.655l-.01.681h-13.645l-.062,3.407" fill="#d3d4d7"/>
    <path id="Trazado_5030" data-name="Trazado 5030" d="M2426.386,2104.626h-13.657l.062-3.407h13.645l-.05,3.407" fill="#7b818e"/>
    <path id="Trazado_5031" data-name="Trazado 5031" d="M2399.465,2104.626h-.033l.2-4.088h12.476l-.012.681h-12.464l-.168,3.407" fill="#d3d4d7"/>
    <path id="Trazado_5032" data-name="Trazado 5032" d="M2412.035,2104.626h-12.57l.168-3.407H2412.1l-.062,3.407" fill="#7b818e"/>
    <path id="Trazado_5033" data-name="Trazado 5033" d="M2452.839,2104.626h-.024l-.122-3.407h-12.435l-.007-.681h12.442l.146,4.088" fill="#d3d4d7"/>
    <path id="Trazado_5034" data-name="Trazado 5034" d="M2452.814,2104.626h-12.52l-.036-3.407h12.435l.122,3.407" fill="#7b818e"/>
    <path id="Trazado_5035" data-name="Trazado 5035" d="M2326.316,2115.534h-.252l1.508-4.09h11.115l-.181.682h-10.933l-1.256,3.408" fill="#d3d4d7"/>
    <path id="Trazado_5036" data-name="Trazado 5036" d="M2337.6,2115.534h-11.284l1.256-3.408h10.933l-.906,3.408" fill="#7b818e"/>
    <path id="Trazado_5037" data-name="Trazado 5037" d="M2371.631,2104.626h-.072l.431-4.088h13.324l-.033.681H2371.99l-.359,3.407" fill="#d3d4d7"/>
    <path id="Trazado_5038" data-name="Trazado 5038" d="M2385.115,2104.626h-13.483l.359-3.407h13.291l-.167,3.407" fill="#7b818e"/>
    <path id="Trazado_5039" data-name="Trazado 5039" d="M2385.83,2104.626h-.033l.2-4.088h12.953l-.033.681H2386l-.166,3.407" fill="#d3d4d7"/>
    <path id="Trazado_5040" data-name="Trazado 5040" d="M2398.749,2104.626H2385.83l.166-3.407h12.92l-.167,3.407" fill="#7b818e"/>
    <path id="Trazado_5041" data-name="Trazado 5041" d="M2439.613,2104.626h-.007l-.037-3.407h-12.44l-.051,3.407h-.01l.061-4.088h12.44l.044,4.088" fill="#d3d4d7"/>
    <path id="Trazado_5042" data-name="Trazado 5042" d="M2439.606,2104.626h-12.528l.051-3.407h12.44l.037,3.407" fill="#7b818e"/>
    <path id="Trazado_5043" data-name="Trazado 5043" d="M2466.875,2110.76h-.06l-.417-4.77h-12.829l-.025-.68H2466.4l.477,5.45" fill="#d3d4d7"/>
    <path id="Trazado_5044" data-name="Trazado 5044" d="M2466.815,2110.76h-13.071l-.175-4.77H2466.4l.417,4.77" fill="#7b818e"/>
    <path id="Trazado_5045" data-name="Trazado 5045" d="M2453.061,2110.76h-.025l-.172-4.77H2440.31l-.008-.68h12.562l.2,5.45" fill="#d3d4d7"/>
    <path id="Trazado_5046" data-name="Trazado 5046" d="M2453.036,2110.76h-12.675l-.052-4.77h12.554l.172,4.77" fill="#7b818e"/>
    <path id="Trazado_5047" data-name="Trazado 5047" d="M2466.34,2104.626h-.06l-.3-3.407H2453.4l-.025-.681h12.609l.357,4.088" fill="#d3d4d7"/>
    <path id="Trazado_5048" data-name="Trazado 5048" d="M2466.28,2104.626h-12.757l-.125-3.407h12.584l.3,3.407" fill="#7b818e"/>
    <path id="Trazado_5049" data-name="Trazado 5049" d="M2481.114,2110.76H2481l-.78-4.77h-13.08l-.059-.68h13.139l.892,5.45" fill="#d3d4d7"/>
    <path id="Trazado_5050" data-name="Trazado 5050" d="M2481,2110.76h-13.445l-.416-4.77h13.08l.78,4.77" fill="#7b818e"/>
    <path id="Trazado_5051" data-name="Trazado 5051" d="M2491.423,2104.626h-.181l-.905-3.407h-10.094l-.112-.681h10.206l1.086,4.088" fill="#d3d4d7"/>
    <path id="Trazado_5052" data-name="Trazado 5052" d="M2491.242,2104.626H2480.8l-.559-3.407h10.094l.905,3.407" fill="#7b818e"/>
    <path id="Trazado_5053" data-name="Trazado 5053" d="M2439.679,2110.76h-.008l-.051-4.77h-12.563l-.07,4.77h-.01l.08-5.45h12.563l.059,5.45" fill="#d3d4d7"/>
    <path id="Trazado_5054" data-name="Trazado 5054" d="M2439.672,2110.76h-12.684l.07-4.77h12.563l.051,4.77" fill="#7b818e"/>
    <path id="Trazado_5055" data-name="Trazado 5055" d="M2480.11,2104.626H2480l-.558-3.407h-12.715l-.06-.681h12.775l.669,4.088" fill="#d3d4d7"/>
    <path id="Trazado_5056" data-name="Trazado 5056" d="M2480,2104.626h-12.974l-.3-3.407h12.715l.558,3.407" fill="#7b818e"/>
    <path id="Trazado_5057" data-name="Trazado 5057" d="M2355.943,2104.626h-.119l.713-4.088H2371.3l-.072.681h-14.7l-.594,3.407" fill="#d3d4d7"/>
    <path id="Trazado_5058" data-name="Trazado 5058" d="M2370.873,2104.626h-14.93l.594-3.407h14.7l-.358,3.407" fill="#7b818e"/>
    <path id="Trazado_5059" data-name="Trazado 5059" d="M2412.535,2115.534h-.012l.074-4.09h13.691l-.01.682H2412.6l-.062,3.408" fill="#d3d4d7"/>
    <path id="Trazado_5060" data-name="Trazado 5060" d="M2426.225,2115.534h-13.69l.062-3.408h13.681l-.053,3.408" fill="#7b818e"/>
    <path id="Trazado_5061" data-name="Trazado 5061" d="M2370.482,2115.534h-.072l.431-4.09h13.94l-.033.682h-13.907l-.359,3.408" fill="#d3d4d7"/>
    <path id="Trazado_5062" data-name="Trazado 5062" d="M2384.58,2115.534h-14.1l.359-3.408h13.907l-.168,3.408" fill="#7b818e"/>
    <path id="Trazado_5063" data-name="Trazado 5063" d="M2494.321,2115.534h-.182l-.9-3.408h-11.2l-.111-.682h11.316l1.086,4.09" fill="#d3d4d7"/>
    <path id="Trazado_5064" data-name="Trazado 5064" d="M2494.139,2115.534h-11.554l-.555-3.408h11.2l.9,3.408" fill="#7b818e"/>
    <path id="Trazado_5065" data-name="Trazado 5065" d="M2439.73,2115.534h-.007l-.037-3.408H2426.97l-.052,3.408h-.01l.063-4.09h12.717l.044,4.09" fill="#d3d4d7"/>
    <path id="Trazado_5066" data-name="Trazado 5066" d="M2439.723,2115.534h-12.806l.052-3.408h12.717l.037,3.408" fill="#7b818e"/>
    <path id="Trazado_5067" data-name="Trazado 5067" d="M2467.29,2115.534h-.06l-.3-3.408h-13.139l-.025-.682h13.165l.356,4.09" fill="#d3d4d7"/>
    <path id="Trazado_5068" data-name="Trazado 5068" d="M2467.23,2115.534h-13.312l-.124-3.408h13.139l.3,3.408" fill="#7b818e"/>
    <path id="Trazado_5069" data-name="Trazado 5069" d="M2481.895,2115.534h-.112l-.557-3.408h-13.55l-.06-.682h13.609l.668,4.09" fill="#d3d4d7"/>
    <path id="Trazado_5070" data-name="Trazado 5070" d="M2481.783,2115.534h-13.809l-.3-3.408h13.55l.557,3.408" fill="#7b818e"/>
    <path id="Trazado_5071" data-name="Trazado 5071" d="M2339.756,2110.76h-.182l1.453-5.45h13.986l-.119.68h-13.867l-1.271,4.77" fill="#d3d4d7"/>
    <path id="Trazado_5072" data-name="Trazado 5072" d="M2354.062,2110.76h-14.306l1.271-4.77h13.867l-.833,4.77" fill="#7b818e"/>
    <path id="Trazado_5073" data-name="Trazado 5073" d="M2341.389,2104.626h-.182l1.089-4.088h13.548l-.119.681H2342.3l-.906,3.407" fill="#d3d4d7"/>
    <path id="Trazado_5074" data-name="Trazado 5074" d="M2355.131,2104.626h-13.742l.906-3.407h13.429l-.593,3.407" fill="#7b818e"/>
    <path id="Trazado_5075" data-name="Trazado 5075" d="M2354.043,2115.534h-.119l.71-4.09h15.519l-.071.682h-15.448l-.591,3.408" fill="#d3d4d7"/>
    <path id="Trazado_5076" data-name="Trazado 5076" d="M2369.726,2115.534h-15.683l.591-3.408h15.448l-.356,3.408" fill="#7b818e"/>
    <path id="Trazado_5077" data-name="Trazado 5077" d="M2338.485,2115.534h-.182l1.089-4.09h14.55l-.119.682h-14.431l-.907,3.408" fill="#d3d4d7"/>
    <path id="Trazado_5078" data-name="Trazado 5078" d="M2353.232,2115.534h-14.746l.907-3.408h14.431l-.592,3.408" fill="#7b818e"/>
    <path id="Trazado_5079" data-name="Trazado 5079" d="M2506.623,2115.534h-.278l-1.384-3.408h-10.843l-.181-.682h11.024l1.661,4.09" fill="#d3d4d7"/>
    <path id="Trazado_5080" data-name="Trazado 5080" d="M2506.346,2115.534h-11.32l-.906-3.408h10.843l1.384,3.408" fill="#7b818e"/>
    <path id="Trazado_5081" data-name="Trazado 5081" d="M2324.535,2120.362h-.253l1.531-4.145h11.6l-.182.683h-11.422l-1.278,3.463" fill="#d3d4d7"/>
    <path id="Trazado_5082" data-name="Trazado 5082" d="M2336.313,2120.362h-11.778l1.278-3.463h11.422l-.923,3.463" fill="#7b818e"/>
    <path id="Trazado_5083" data-name="Trazado 5083" d="M2482.685,2120.362h-.112L2482,2116.9h-13.909l-.06-.683H2482l.681,4.145" fill="#d3d4d7"/>
    <path id="Trazado_5084" data-name="Trazado 5084" d="M2482.573,2120.362H2468.4l-.3-3.463H2482l.569,3.463" fill="#7b818e"/>
    <path id="Trazado_5085" data-name="Trazado 5085" d="M2370.984,2110.76h-.072l.574-5.45h13.6l-.034.68h-13.561l-.5,4.77" fill="#d3d4d7"/>
    <path id="Trazado_5086" data-name="Trazado 5086" d="M2384.813,2110.76h-13.829l.5-4.77h13.561l-.234,4.77" fill="#7b818e"/>
    <path id="Trazado_5087" data-name="Trazado 5087" d="M2493.051,2110.76h-.181l-1.264-4.77h-10.582l-.111-.68h10.693l1.446,5.45" fill="#d3d4d7"/>
    <path id="Trazado_5088" data-name="Trazado 5088" d="M2492.87,2110.76H2481.8l-.781-4.77h10.582l1.264,4.77" fill="#7b818e"/>
    <path id="Trazado_5089" data-name="Trazado 5089" d="M2495.6,2120.362h-.182l-.918-3.463h-11.692l-.112-.683h11.8l1.1,4.145" fill="#d3d4d7"/>
    <path id="Trazado_5090" data-name="Trazado 5090" d="M2495.419,2120.362h-12.042l-.568-3.463H2494.5l.918,3.463" fill="#7b818e"/>
    <path id="Trazado_5091" data-name="Trazado 5091" d="M2508.582,2120.362h-.278l-1.405-3.463h-11.511l-.181-.683H2506.9l1.683,4.145" fill="#d3d4d7"/>
    <path id="Trazado_5092" data-name="Trazado 5092" d="M2508.3,2120.362h-12l-.918-3.463H2506.9l1.405,3.463" fill="#7b818e"/>
    <path id="Trazado_5093" data-name="Trazado 5093" d="M2398.932,2115.534h-.033l.2-4.09h12.816l-.012.682h-12.8l-.165,3.408" fill="#d3d4d7"/>
    <path id="Trazado_5094" data-name="Trazado 5094" d="M2411.84,2115.534h-12.907l.165-3.408h12.8l-.061,3.408" fill="#7b818e"/>
    <path id="Trazado_5095" data-name="Trazado 5095" d="M2385.3,2115.534h-.033l.2-4.09h12.952l-.033.682h-12.919l-.166,3.408" fill="#d3d4d7"/>
    <path id="Trazado_5096" data-name="Trazado 5096" d="M2398.216,2115.534H2385.3l.166-3.408h12.919l-.166,3.408" fill="#7b818e"/>
    <path id="Trazado_5097" data-name="Trazado 5097" d="M2354.873,2110.76h-.119l.951-5.45h15.1l-.072.68H2355.7l-.832,4.77" fill="#d3d4d7"/>
    <path id="Trazado_5098" data-name="Trazado 5098" d="M2370.228,2110.76h-15.355l.832-4.77h15.025l-.5,4.77" fill="#7b818e"/>
    <path id="Trazado_5099" data-name="Trazado 5099" d="M2353.2,2120.362h-.12l.724-4.145h15.85l-.072.683H2353.8l-.6,3.463" fill="#d3d4d7"/>
    <path id="Trazado_5100" data-name="Trazado 5100" d="M2369.217,2120.362H2353.2l.6-3.463h15.778l-.365,3.463" fill="#7b818e"/>
    <path id="Trazado_5101" data-name="Trazado 5101" d="M2337.2,2120.362h-.182l1.105-4.145h14.989l-.119.683h-14.869l-.923,3.463" fill="#d3d4d7"/>
    <path id="Trazado_5102" data-name="Trazado 5102" d="M2352.388,2120.362H2337.2l.923-3.463h14.869l-.6,3.463" fill="#7b818e"/>
    <path id="Trazado_5103" data-name="Trazado 5103" d="M2399.165,2110.76h-.033l.267-5.45h12.624l-.012.68H2399.4l-.234,4.77" fill="#d3d4d7"/>
    <path id="Trazado_5104" data-name="Trazado 5104" d="M2411.927,2110.76h-12.762l.234-4.77h12.612l-.084,4.77" fill="#7b818e"/>
    <path id="Trazado_5105" data-name="Trazado 5105" d="M2453.234,2115.534h-.024l-.122-3.408h-12.713l-.007-.682h12.72l.146,4.09" fill="#d3d4d7"/>
    <path id="Trazado_5106" data-name="Trazado 5106" d="M2453.21,2115.534h-12.8l-.036-3.408h12.713l.122,3.408" fill="#7b818e"/>
    <path id="Trazado_5107" data-name="Trazado 5107" d="M2439.783,2120.362h-.008l-.038-3.463H2426.9l-.051,3.463h-.01l.061-4.145h12.84l.045,4.145" fill="#d3d4d7"/>
    <path id="Trazado_5108" data-name="Trazado 5108" d="M2439.776,2120.362h-12.928l.051-3.463h12.84l.038,3.463" fill="#7b818e"/>
    <path id="Trazado_5109" data-name="Trazado 5109" d="M2453.41,2120.362h-.025l-.126-3.463h-12.834l-.008-.683h12.841l.151,4.145" fill="#d3d4d7"/>
    <path id="Trazado_5110" data-name="Trazado 5110" d="M2453.385,2120.362h-12.92l-.04-3.463h12.834l.126,3.463" fill="#7b818e"/>
    <path id="Trazado_5111" data-name="Trazado 5111" d="M2369.974,2120.362h-.072l.436-4.145h55.877l-.01.683h-55.867l-.364,3.463" fill="#d3d4d7"/>
    <path id="Trazado_5112" data-name="Trazado 5112" d="M2426.154,2120.362h-56.18l.364-3.463h55.867l-.052,3.463" fill="#7b818e"/>
    <path id="Trazado_5113" data-name="Trazado 5113" d="M2467.711,2120.362h-.06l-.3-3.463h-13.384l-.025-.683h13.409l.361,4.145" fill="#d3d4d7"/>
    <path id="Trazado_5114" data-name="Trazado 5114" d="M2467.652,2120.362h-13.56l-.126-3.463h13.384l.3,3.463" fill="#7b818e"/>
    <path id="Trazado_5115" data-name="Trazado 5115" d="M2385.531,2110.76h-.033l.267-5.45h12.951l-.033.68h-12.918l-.233,4.77" fill="#d3d4d7"/>
    <path id="Trazado_5116" data-name="Trazado 5116" d="M2398.448,2110.76h-12.917l.233-4.77h12.918l-.234,4.77" fill="#7b818e"/>
    <path id="Trazado_5117" data-name="Trazado 5117" d="M2412.62,2110.76h-.012l.1-5.45h13.672l-.01.68H2412.7l-.085,4.77" fill="#d3d4d7"/>
    <path id="Trazado_5118" data-name="Trazado 5118" d="M2426.3,2110.76H2412.62l.085-4.77h13.662l-.07,4.77" fill="#7b818e"/>
    <path id="Trazado_5119" data-name="Trazado 5119" d="M2490.872,2067.037a7.177,7.177,0,0,1-7.178,7.178H2349.656a7.178,7.178,0,0,1-7.179-7.178V1973.4a7.178,7.178,0,0,1,7.179-7.179h134.038a7.177,7.177,0,0,1,7.178,7.179v93.639" fill="#fff"/>
    <path id="Trazado_5120" data-name="Trazado 5120" d="M2490.872,1979.458v-6.06a7.177,7.177,0,0,0-7.178-7.179H2349.656a7.178,7.178,0,0,0-7.179,7.179v6.06h148.4" fill="#354f66"/>
    <path id="Trazado_5121" data-name="Trazado 5121" d="M2467.753,1975.534a2.693,2.693,0,1,1,2.694-2.7,2.695,2.695,0,0,1-2.694,2.7" fill="#0b111c"/>
    <path id="Trazado_5122" data-name="Trazado 5122" d="M2477.924,1975.534a2.693,2.693,0,1,1,2.693-2.7,2.694,2.694,0,0,1-2.693,2.7" fill="#0b111c"/>
    <path id="Trazado_5123" data-name="Trazado 5123" d="M2457.415,1975.534a2.693,2.693,0,1,1,2.693-2.7,2.7,2.7,0,0,1-2.693,2.7" fill="#0b111c"/>
    <path id="Trazado_5124" data-name="Trazado 5124" d="M2488.489,2011.836H2344.861v-29.744h143.628v29.744Z" fill="#8aed8a"/>
    <path id="Trazado_5125" data-name="Trazado 5125" d="M2396.27,1972.839a2.8,2.8,0,0,1-2.8,2.8h-34.933a2.8,2.8,0,1,1,0-5.6h34.933a2.8,2.8,0,0,1,2.8,2.8Z" fill="#fff"/>
    <path id="Trazado_5126" data-name="Trazado 5126" d="M2361.03,1973.5a.761.761,0,0,1-.285.625,1.244,1.244,0,0,1-.8.229,1.876,1.876,0,0,1-.83-.177v-.577a3.242,3.242,0,0,0,.5.185,1.448,1.448,0,0,0,.376.055.534.534,0,0,0,.313-.078.267.267,0,0,0,.11-.232.253.253,0,0,0-.048-.153.549.549,0,0,0-.142-.13,3.693,3.693,0,0,0-.38-.2,1.719,1.719,0,0,1-.4-.242.882.882,0,0,1-.213-.271.844.844,0,0,1,.183-.971,1.092,1.092,0,0,1,.728-.223,1.686,1.686,0,0,1,.436.054,2.852,2.852,0,0,1,.433.153l-.2.483a2.953,2.953,0,0,0-.389-.135,1.248,1.248,0,0,0-.3-.039.408.408,0,0,0-.271.083.274.274,0,0,0-.094.214.268.268,0,0,0,.038.144.42.42,0,0,0,.122.119,3.712,3.712,0,0,0,.394.2,1.589,1.589,0,0,1,.563.393.777.777,0,0,1,.152.485Z" fill="#283042"/>
    <path id="Trazado_5127" data-name="Trazado 5127" d="M2362.442,1972.464a.39.39,0,0,0-.306.123.568.568,0,0,0-.125.349h.856a.511.511,0,0,0-.117-.349.4.4,0,0,0-.308-.123Zm.085,1.888a1.162,1.162,0,0,1-.846-.3,1.136,1.136,0,0,1-.3-.847,1.24,1.24,0,0,1,.282-.869,1.142,1.142,0,0,1,1.517-.038,1.019,1.019,0,0,1,.265.747v.3H2362a.587.587,0,0,0,.156.406.538.538,0,0,0,.4.147,1.737,1.737,0,0,0,.383-.042,1.955,1.955,0,0,0,.376-.135v.474a1.439,1.439,0,0,1-.342.118,2.094,2.094,0,0,1-.445.04Z" fill="#283042"/>
    <path id="Trazado_5128" data-name="Trazado 5128" d="M2365.181,1973.273l-.238.009a.749.749,0,0,0-.4.094.3.3,0,0,0-.131.27c0,.172.1.258.3.258a.47.47,0,0,0,.34-.122.434.434,0,0,0,.128-.325v-.184Zm.18,1.038-.118-.305h-.017a.88.88,0,0,1-.317.27,1.024,1.024,0,0,1-.426.076.689.689,0,0,1-.509-.185.714.714,0,0,1-.184-.525.59.59,0,0,1,.25-.527,1.459,1.459,0,0,1,.751-.187l.39-.012v-.1a.3.3,0,0,0-.349-.34,1.6,1.6,0,0,0-.632.162l-.2-.413a1.823,1.823,0,0,1,.859-.2,1.072,1.072,0,0,1,.691.2.728.728,0,0,1,.241.6v1.493Z" fill="#283042"/>
    <path id="Trazado_5129" data-name="Trazado 5129" d="M2367.668,1972.029a1,1,0,0,1,.206.017l-.047.574a.657.657,0,0,0-.179-.02.648.648,0,0,0-.457.15.544.544,0,0,0-.163.421v1.14h-.611v-2.241h.463l.09.377H2367a.847.847,0,0,1,.281-.3.69.69,0,0,1,.386-.114Z" fill="#283042"/>
    <path id="Trazado_5130" data-name="Trazado 5130" d="M2369.191,1974.352q-1.047,0-1.047-1.149a1.23,1.23,0,0,1,.285-.873,1.073,1.073,0,0,1,.816-.3,1.553,1.553,0,0,1,.7.152l-.18.473c-.1-.04-.187-.071-.269-.1a.863.863,0,0,0-.249-.037c-.318,0-.477.227-.477.678s.159.657.477.657a1.1,1.1,0,0,0,.327-.046,1.276,1.276,0,0,0,.3-.148v.523a.989.989,0,0,1-.3.13,1.631,1.631,0,0,1-.382.037Z" fill="#283042"/>
    <path id="Trazado_5131" data-name="Trazado 5131" d="M2372.459,1974.311h-.611V1973c0-.323-.12-.486-.36-.486a.412.412,0,0,0-.371.175,1.066,1.066,0,0,0-.115.565v1.054h-.611v-3.118H2371v.635c0,.049,0,.166-.014.349l-.014.179h.032a.714.714,0,0,1,.65-.327.79.79,0,0,1,.6.212.844.844,0,0,1,.2.61v1.46Z" fill="#283042"/>
    <path id="Trazado_5132" data-name="Trazado 5132" d="M2414.864,1988.6a2.35,2.35,0,0,1-2.35,2.349h-28.6a2.349,2.349,0,0,1,0-4.7h28.6a2.35,2.35,0,0,1,2.35,2.349Z" fill="#4baa4d"/>
    <path id="Trazado_5133" data-name="Trazado 5133" d="M2478.256,1995.653a1.317,1.317,0,0,1-1.315,1.315h-94.063a1.315,1.315,0,0,1,0-2.631h94.063a1.317,1.317,0,0,1,1.315,1.316Z" fill="#60c967"/>
    <path id="Trazado_5134" data-name="Trazado 5134" d="M2478.256,2001.291a1.317,1.317,0,0,1-1.315,1.316h-94.063a1.316,1.316,0,0,1,0-2.631h94.063a1.316,1.316,0,0,1,1.315,1.315Z" fill="#60c967"/>
    <path id="Trazado_5135" data-name="Trazado 5135" d="M2448.606,2006.93a1.316,1.316,0,0,1-1.314,1.315h-64.414a1.316,1.316,0,0,1,0-2.632h64.414a1.316,1.316,0,0,1,1.314,1.317Z" fill="#60c967"/>
    <path id="Trazado_5136" data-name="Trazado 5136" d="M2354.71,1997.409a11.347,11.347,0,1,0,11.25-11.443,11.349,11.349,0,0,0-11.25,11.443Z" fill="#fff"/>
    <path id="Trazado_5137" data-name="Trazado 5137" d="M2414.864,2016.844a2.351,2.351,0,0,1-2.35,2.35h-28.6a2.35,2.35,0,0,1,0-4.7h28.6a2.351,2.351,0,0,1,2.35,2.35Z" fill="#a3c4c1"/>
    <path id="Trazado_5138" data-name="Trazado 5138" d="M2478.256,2023.892a1.316,1.316,0,0,1-1.315,1.314h-94.063a1.315,1.315,0,0,1,0-2.63h94.063a1.317,1.317,0,0,1,1.315,1.316Z" fill="#daedec"/>
    <path id="Trazado_5139" data-name="Trazado 5139" d="M2478.256,2029.531a1.316,1.316,0,0,1-1.315,1.314h-94.063a1.315,1.315,0,0,1,0-2.631h94.063a1.317,1.317,0,0,1,1.315,1.317Z" fill="#daedec"/>
    <path id="Trazado_5140" data-name="Trazado 5140" d="M2448.606,2035.168a1.315,1.315,0,0,1-1.314,1.316h-64.414a1.315,1.315,0,0,1,0-2.631h64.414a1.314,1.314,0,0,1,1.314,1.315Z" fill="#daedec"/>
    <path id="Trazado_5141" data-name="Trazado 5141" d="M2354.71,2025.648a11.347,11.347,0,1,0,11.25-11.443,11.349,11.349,0,0,0-11.25,11.443Z" fill="#daedec"/>
    <path id="Trazado_5142" data-name="Trazado 5142" d="M2414.864,2044.288a2.349,2.349,0,0,1-2.35,2.348h-28.6a2.349,2.349,0,0,1,0-4.7h28.6a2.351,2.351,0,0,1,2.35,2.35Z" fill="#a3c4c1"/>
    <path id="Trazado_5143" data-name="Trazado 5143" d="M2478.256,2051.338a1.315,1.315,0,0,1-1.315,1.312h-94.063a1.315,1.315,0,0,1,0-2.63h94.063a1.317,1.317,0,0,1,1.315,1.318Z" fill="#daedec"/>
    <path id="Trazado_5144" data-name="Trazado 5144" d="M2478.256,2056.973a1.317,1.317,0,0,1-1.315,1.317h-94.063a1.316,1.316,0,0,1,0-2.632h94.063a1.317,1.317,0,0,1,1.315,1.315Z" fill="#daedec"/>
    <path id="Trazado_5145" data-name="Trazado 5145" d="M2448.606,2062.614a1.315,1.315,0,0,1-1.314,1.314h-64.414a1.315,1.315,0,0,1,0-2.631h64.414a1.315,1.315,0,0,1,1.314,1.317Z" fill="#daedec"/>
    <path id="Trazado_5146" data-name="Trazado 5146" d="M2354.71,2053.093a11.347,11.347,0,1,0,11.25-11.444,11.349,11.349,0,0,0-11.25,11.444Z" fill="#daedec"/>
    <path id="Trazado_5147" data-name="Trazado 5147" d="M2365.717,2002.6a2.065,2.065,0,0,1-.367.033,1.689,1.689,0,0,1-1.252-.367l-4.551-3.931a1.1,1.1,0,0,1-.376-.812,1.9,1.9,0,0,1,.57-1.343,1.445,1.445,0,0,1,.746-.421,1.4,1.4,0,0,1,1.183.384l3.481,2.962,3.79-5.3c.012-.02,2.388-3.357,3.447-3.557a.548.548,0,0,1,.305.021.516.516,0,0,1,.316.334c.3.905-1.465,3.824-1.484,3.852l-4.635,7.4a1.764,1.764,0,0,1-1.173.752Z" fill="#60c967"/>
  </g>
</svg>
