<svg xmlns="http://www.w3.org/2000/svg" width="498.735" height="420.996" viewBox="0 0 498.735 420.996">
  <g id="Grupo_11954" data-name="Grupo 11954" transform="translate(5333.136 -621.435)">
    <rect id="Rectángulo_3468" data-name="Rectángulo 3468" width="498.735" height="395.234" rx="10" transform="translate(-5333.136 621.435)" fill="#dff4ff"/>
    <g id="Grupo_9158" data-name="Grupo 9158">
      <path id="Trazado_2498" data-name="Trazado 2498" d="M-5114.747,928.463c.016.22.039.436.068.652l8.5,113.316h14.013V855.221l-27.962,1.054,5.374,72.188Z" fill="#ff95a9"/>
      <path id="Trazado_2499" data-name="Trazado 2499" d="M-5041.051,1042.431l-10.758-188.023-27.855,2.667,24.53,185.356Z" fill="#ff95a9"/>
      <path id="Trazado_2500" data-name="Trazado 2500" d="M-5169.478,766.612l8.617-67.075-3.526-10.242h.007a6.958,6.958,0,0,1-.387-2.27,7,7,0,0,1,6.991-7.009,6.966,6.966,0,0,1,3.025.69V669.338a2,2,0,0,1,2-2,2,2,0,0,1,2,2v20h-.013l.013,9.668h0l.088,68.81Z" fill="#ff95a9"/>
      <path id="Trazado_2501" data-name="Trazado 2501" d="M-5017.061,763.812c-3.805-3.2-7.586-6.307-9.054-11.982-3.616-13.986,2.48-16.138-1.7-29.979s-14.41-10.607-18.587-24.448a17.911,17.911,0,0,1-.806-4.917,36.58,36.58,0,0,0,1.26-6.513c.044-.388.074-.783.1-1.165a37.024,37.024,0,0,0-1.1-11.89,37.169,37.169,0,0,0-45.286-26.677,37.171,37.171,0,0,0-26.687,45.288,37.038,37.038,0,0,0,4.8,10.935c.206.323.419.634.634.954l.013.008a36.952,36.952,0,0,0,4.279,5.114,18.262,18.262,0,0,1,1.662,4.673c3.056,14.131-7.451,16.261-4.4,30.391s9.431,13.058,13.048,27.044c1.468,5.675-.333,10.225-2.12,14.872-1.764,4.651-3.514,9.4-1.953,15.436a32.391,32.391,0,0,0,39.475,23.254l32.37-8.371a32.381,32.381,0,0,0,23.244-39.472C-5009.432,770.329-5013.264,767.025-5017.061,763.812Z" fill="#40327a"/>
      <path id="Trazado_2502" data-name="Trazado 2502" d="M-5169.467,766.611h-.015l7.584-59.01,11.161.716.057,44.156,42.253-21.367a12.933,12.933,0,0,1,7.458-1.987,13,13,0,0,1,12.449,13.528,13,13,0,0,1-8.5,11.66l.026.06-59.818,22.315-.006-.014a9.44,9.44,0,0,1-11.919-4.986A9.379,9.379,0,0,1-5169.467,766.611Z" fill="#ffc7bd"/>
      <rect id="Rectángulo_3469" data-name="Rectángulo 3469" width="6.246" height="2" transform="matrix(0.127, -0.992, 0.992, 0.127, -5164.373, 719.009)" fill="#ff95a9"/>
      <rect id="Rectángulo_3470" data-name="Rectángulo 3470" width="3.425" height="2" transform="translate(-5165.149 725.053) rotate(-82.675)" fill="#ff95a9"/>
      <path id="Trazado_2503" data-name="Trazado 2503" d="M-5125.287,766.861a12.922,12.922,0,0,1,1.041-4.556l-.014-.005,10.79-25.293.008,0a13,13,0,0,1,12.5-7.892l48.3,2.005a8,8,0,0,1,7.339,10.266l-22.369,75.506h0a23.25,23.25,0,0,1-24.2,22.266,23.249,23.249,0,0,1-22.266-24.2l-.165-34.731A13,13,0,0,1-5125.287,766.861Z" fill="#ffc7bd"/>
      <path id="Trazado_2504" data-name="Trazado 2504" d="M-5112.293,781.4a13.97,13.97,0,0,0,2.683-.259l-.383-1.962a11.981,11.981,0,0,1-2.8.21,12.013,12.013,0,0,1-11.491-12.488,11.952,11.952,0,0,1,.961-4.2l.393-.918-.014-.007,6.9-16.177-1.84-.785-7.684,18.015.044.019a13.793,13.793,0,0,0-.759,3.974,14.015,14.015,0,0,0,13.406,14.568C-5112.684,781.4-5112.489,781.4-5112.293,781.4Z" fill="#ff95a9"/>
      <path id="Trazado_2505" data-name="Trazado 2505" d="M-5106.313,780.054a13.952,13.952,0,0,0,4.31-3.185l-1.473-1.352a11.971,11.971,0,0,1-3.7,2.731Z" fill="#ff95a9"/>
      <path id="Trazado_2506" data-name="Trazado 2506" d="M-5108.021,692.842l7.923-30.347,36.878,7.232-3.658,18.656.981.192a5,5,0,0,1,3.945,5.869,5,5,0,0,1-5.869,3.944l-.98-.192-4.447,32.073,9.933.412-36.2,21.651.96-23.114,3.277.136c.015-.349.044-.7.093-1.054l2.079-15-2.352-.461A16.208,16.208,0,0,1-5108.021,692.842Z" fill="#ff95a9"/>
      <path id="Trazado_2507" data-name="Trazado 2507" d="M-5066.878,688.383l.981.193,5.558-28.345-29.21-5.728a14.234,14.234,0,0,0-16.707,11.229l-.108.555.982.193a39.128,39.128,0,0,1,21.627,12.3h0a30.527,30.527,0,0,0,16.877,9.6Z" fill="#40327a"/>
      <path id="Trazado_2508" data-name="Trazado 2508" d="M-5114.759,928.463h67.187l-4.211-73.366-68.349,1.178Z" fill="#8b77e8"/>
      <path id="Trazado_2509" data-name="Trazado 2509" d="M-5114.175,815.932h46.5l2.506,1.948a34.629,34.629,0,0,1,13.381,27.343v10a14,14,0,0,1-14,14h-40.386a14,14,0,0,1-14-14v-13.7A57.628,57.628,0,0,1-5114.175,815.932Z" fill="#8b77e8"/>
      <path id="Trazado_2510" data-name="Trazado 2510" d="M-5058.65,830.386l9.475-1.6,32.491-57.929,15.808,10.275-41.1,55.177-.009-.005a4.968,4.968,0,0,1-1.616,1.386l.008.021-10.543,5.731,0-.007a6.954,6.954,0,0,1-2.175.757,7,7,0,0,1-8.069-5.734A7,7,0,0,1-5058.65,830.386Z" fill="#ff95a9"/>
      <path id="Trazado_2511" data-name="Trazado 2511" d="M-5064.743,737.383a13,13,0,0,1,17.845-4.421,13.19,13.19,0,0,1,1.387.979l.007-.011,42.949,34.159-.006.009a9.441,9.441,0,0,1,2.355,12,9.634,9.634,0,0,1-.677,1.026l.011.008-35.543,47.711-9.377-6.1,24.628-43.908-39.158-23.61A13,13,0,0,1-5064.743,737.383Z" fill="#ffc7bd"/>
      <path id="Trazado_2512" data-name="Trazado 2512" d="M-5003.365,786.151l3.912-5.252-.046-.031c.057-.095.112-.189.165-.282a10.388,10.388,0,0,0-1.915-12.671l.022-.033-.705-.576-13.592-10.809-1.245,1.564,13.585,10.82a8.4,8.4,0,0,1,2.106,10.726,8.338,8.338,0,0,1-.607.918l-.618.828.012.009-2.678,3.594Z" fill="#ff95a9"/>
      <rect id="Rectángulo_3471" data-name="Rectángulo 3471" width="1.999" height="4.799" transform="translate(-5023.567 752.654) rotate(-51.49)" fill="#ff95a9"/>
      <rect id="Rectángulo_3472" data-name="Rectángulo 3472" width="2" height="20.862" transform="matrix(0.998, -0.059, 0.059, 0.998, -5052.011, 869.324)" fill="#624ac9"/>
      <path id="Trazado_2513" data-name="Trazado 2513" d="M-5039.9,1042.431l-8.592-147.231-2,.117,8.585,147.114" fill="#624ac9"/>
      <rect id="Rectángulo_3473" data-name="Rectángulo 3473" width="4.079" height="2" transform="matrix(0.001, -1, 1, 0.001, -5093.182, 946.343)" fill="#624ac9"/>
      <rect id="Rectángulo_3474" data-name="Rectángulo 3474" width="54.939" height="2" transform="matrix(0.001, -1, 1, 0.001, -5093.26, 1004.431)" fill="#624ac9"/>
      <rect id="Rectángulo_3475" data-name="Rectángulo 3475" width="7.278" height="2" transform="translate(-5090.98 814.94) rotate(-0.061)" fill="#624ac9"/>
      <rect id="Rectángulo_3476" data-name="Rectángulo 3476" width="16.625" height="2" transform="translate(-5111.635 814.932)" fill="#624ac9"/>
      <path id="Trazado_2514" data-name="Trazado 2514" d="M-5092.564,699.471a15.041,15.041,0,0,0,2.862-.275l-.379-1.963a13.071,13.071,0,0,1-5.745-.175,13.341,13.341,0,0,1-2.512-.918l-.871,1.8A15.306,15.306,0,0,0-5096.32,699,15.175,15.175,0,0,0-5092.564,699.471Z" fill="#e5659b"/>
    </g>
  </g>
</svg>
