<svg xmlns="http://www.w3.org/2000/svg" width="179.969" height="179.968" viewBox="0 0 179.969 179.968">
  <g id="Grupo_9206" data-name="Grupo 9206" transform="translate(5186.772 -3301.239)">
    <path id="Trazado_2883" data-name="Trazado 2883" d="M-5053.137,3319.107a3.715,3.715,0,0,1,5.752-3.107,89.906,89.906,0,0,1,40.582,75.223,89.74,89.74,0,0,1-6.05,32.505,9.112,9.112,0,0,1-8.5,5.809h-31.787Zm0,0" fill="#5fc6ff"/>
    <path id="Trazado_2884" data-name="Trazado 2884" d="M-5012.52,3422.858a90.021,90.021,0,0,1-84.267,58.349,89.9,89.9,0,0,1-74.636-39.7,12,12,0,0,1,10.007-18.648Zm0,0" fill="#aa4f11"/>
    <path id="Trazado_2885" data-name="Trazado 2885" d="M-5081.321,3302.562c-5.026-.869-28.814-.578-35.15.835a89.632,89.632,0,0,0-35.151,16.473c-3.067,2.361-8.424,9.371-9.789,12.086a12.18,12.18,0,0,0-6.672,4.358,89.6,89.6,0,0,0-18.689,54.909,89.565,89.565,0,0,0,15.576,50.616h125.025V3316.814A89.474,89.474,0,0,0-5081.321,3302.562Z" fill="#e8eaea"/>
    <path id="Trazado_2886" data-name="Trazado 2886" d="M-5151.621,3406.689h35.15v35.15h-35.15Zm-32.991-35.15a90.282,90.282,0,0,0-2.16,19.684,90.735,90.735,0,0,0,1.324,15.466h33.827v-35.15Zm138.441,70.3v-35.15h-35.15v35.15Zm-121.969-105.45h16.519V3319.87a90.406,90.406,0,0,0-16.519,16.519Zm51.669,0h-35.15v35.15h35.15Zm35.15-33.827a90.728,90.728,0,0,0-15.466-1.323,90.229,90.229,0,0,0-19.684,2.16v32.99h35.15Zm-35.15,68.977v35.15h35.15v-35.15Zm70.3,0v-35.15h-35.15v35.15Zm0,0" fill="#b7b7b7"/>
    <g id="Grupo_9205" data-name="Grupo 9205">
      <path id="Trazado_2887" data-name="Trazado 2887" d="M-5086.066,3377.075a2.638,2.638,0,0,0-2.637,2.637,2.637,2.637,0,0,0,2.637,2.635h2.284v3.252h29.526v-3.252h2.285a2.636,2.636,0,0,0,2.636-2.635,2.638,2.638,0,0,0-2.636-2.637h-2.285v-8.963h2.285a2.638,2.638,0,0,0,2.636-2.637,2.637,2.637,0,0,0-2.636-2.636h-2.285v-.088a12.3,12.3,0,0,0-12.3-12.3h-.731a2.628,2.628,0,0,0,1.082-2.12v-5.789a2.637,2.637,0,0,0-2.636-2.636,2.637,2.637,0,0,0-2.636,2.636v5.789a2.626,2.626,0,0,0,1.083,2.12h-1.083a12.3,12.3,0,0,0-12.3,12.3v.088h-2.284a2.637,2.637,0,0,0-2.637,2.636,2.638,2.638,0,0,0,2.637,2.637h2.284v8.963Z" fill="#f7b126"/>
      <path id="Trazado_2888" data-name="Trazado 2888" d="M-5019.808,3455.9h-5.074l-6.251-8.462a163.007,163.007,0,0,1-26.075-53.665h1.371a2.637,2.637,0,0,0,2.636-2.637,2.637,2.637,0,0,0-2.636-2.636h-2.811l-.215-.791h-20.311l-.215.791h-2.811a2.637,2.637,0,0,0-2.636,2.636,2.637,2.637,0,0,0,2.636,2.637h1.371a163.035,163.035,0,0,1-26.075,53.665l-6.252,8.462h-5.073a5.271,5.271,0,0,0-5.272,5.273,5.27,5.27,0,0,0,5.272,5.272h98.421a5.271,5.271,0,0,0,5.272-5.272A5.272,5.272,0,0,0-5019.808,3455.9Z" fill="#f7b126"/>
    </g>
    <path id="Trazado_2889" data-name="Trazado 2889" d="M-5074.758,3377.075h22.787a2.638,2.638,0,0,1,2.636,2.637,2.636,2.636,0,0,1-2.636,2.635h-22.787a2.635,2.635,0,0,1-2.636-2.635,2.636,2.636,0,0,1,2.636-2.637Zm-2.636-11.6a2.636,2.636,0,0,0,2.636,2.637h22.787a2.638,2.638,0,0,0,2.636-2.637,2.637,2.637,0,0,0-2.636-2.636h-22.787a2.636,2.636,0,0,0-2.636,2.636Zm24.193,25.66a2.637,2.637,0,0,0-2.636-2.636h-15.054a2.636,2.636,0,0,0-2.637,2.636,2.637,2.637,0,0,0,2.637,2.637h15.054a2.637,2.637,0,0,0,2.636-2.637Zm-10.194-41.565a2.637,2.637,0,0,0-2.636-2.636h-5.975a2.637,2.637,0,0,0-2.637,2.636,2.638,2.638,0,0,0,2.637,2.636h5.975a2.637,2.637,0,0,0,2.636-2.636Zm0,0" fill="#ffc82e"/>
    <path id="Trazado_2890" data-name="Trazado 2890" d="M-5026.838,3459.414H-5111.2a5.271,5.271,0,0,1-5.272-5.272,5.271,5.271,0,0,1,5.272-5.273h84.361a5.272,5.272,0,0,1,5.272,5.273,5.271,5.271,0,0,1-5.272,5.272Zm-21.09-73.112v-1.758a2.638,2.638,0,0,0-2.637-2.636h-36.907a2.637,2.637,0,0,0-2.637,2.636v1.758a2.637,2.637,0,0,0,2.637,2.636h36.907a2.638,2.638,0,0,0,2.637-2.636Zm0,0" fill="#f49e21"/>
    <path id="Trazado_2891" data-name="Trazado 2891" d="M-5102.276,3398.513a1.759,1.759,0,0,1-1.757,1.758,46.787,46.787,0,0,1-46.633-43.739l-5.728,6.708a1.754,1.754,0,0,1-1.338.617,1.758,1.758,0,0,1-1.141-.421,1.757,1.757,0,0,1-.2-2.477l8.372-9.8a1.755,1.755,0,0,1,1.2-.61,1.742,1.742,0,0,1,1.28.416l9.8,8.37a1.759,1.759,0,0,1,.2,2.478,1.757,1.757,0,0,1-2.479.194l-6.446-5.5a43.268,43.268,0,0,0,43.112,40.257,1.757,1.757,0,0,1,1.757,1.757Zm0,0" fill="#dd2a44"/>
    <path id="Trazado_2892" data-name="Trazado 2892" d="M-5119.34,3362.616a1.757,1.757,0,0,1-1.758,1.757h-8.946a1.757,1.757,0,0,1-1.758-1.757,1.758,1.758,0,0,1,1.758-1.758h8.946a1.758,1.758,0,0,1,1.758,1.758Zm8.006-9.842h-18.71a1.757,1.757,0,0,0-1.758,1.757,1.758,1.758,0,0,0,1.758,1.758h18.71a1.757,1.757,0,0,0,1.757-1.758,1.757,1.757,0,0,0-1.757-1.757Zm-18.71-4.57h12.734a1.759,1.759,0,0,0,1.758-1.757,1.759,1.759,0,0,0-1.758-1.758h-12.734a1.758,1.758,0,0,0-1.758,1.758,1.757,1.757,0,0,0,1.758,1.757Zm0,0" fill="#7e9e0b"/>
  </g>
</svg>
