<svg xmlns="http://www.w3.org/2000/svg" width="179.969" height="179.969" viewBox="0 0 179.969 179.969">
  <g id="Grupo_9204" data-name="Grupo 9204" transform="translate(5747.733 -3632.572)">
    <path id="Trazado_2871" data-name="Trazado 2871" d="M-5567.764,3722.557q0,2.777-.168,5.509a89.984,89.984,0,0,1-84.307,84.306q-2.732.171-5.509.169t-5.509-.169a89.983,89.983,0,0,1-84.307-84.306q-.171-2.731-.169-5.509t.169-5.509a89.985,89.985,0,0,1,84.307-84.307q2.731-.171,5.509-.169t5.509.169a89.986,89.986,0,0,1,84.307,84.307q.17,2.731.168,5.509Zm0,0" fill="#5fc6ff"/>
    <path id="Trazado_2872" data-name="Trazado 2872" d="M-5599.609,3683.54v108.115a90.228,90.228,0,0,1-13.771,9.483,2.564,2.564,0,0,1-3.8-2.247V3683.54a3.516,3.516,0,0,1,3.515-3.515h10.545a3.516,3.516,0,0,1,3.515,3.515Zm0,0" fill="#c0e54c"/>
    <path id="Trazado_2873" data-name="Trazado 2873" d="M-5571.489,3749.864v-25.9a3.515,3.515,0,0,0-3.515-3.515h-10.545a3.515,3.515,0,0,0-3.515,3.515v57.307a89.8,89.8,0,0,0,17.575-31.406Zm-84.36-8.326v-87.875a3.516,3.516,0,0,0-3.515-3.515h-10.545a3.515,3.515,0,0,0-3.515,3.515v87.875a3.515,3.515,0,0,0,3.515,3.515h10.545a3.516,3.516,0,0,0,3.515-3.515Zm0,0" fill="#a5d130"/>
    <path id="Trazado_2874" data-name="Trazado 2874" d="M-5631.244,3773.173h-10.545a3.516,3.516,0,0,1-3.515-3.515v-79.439a3.515,3.515,0,0,1,3.515-3.515h10.545a3.515,3.515,0,0,1,3.515,3.515v79.439a3.516,3.516,0,0,1-3.515,3.515Zm-52.725-17.575v-87.875a3.516,3.516,0,0,0-3.515-3.515h-10.545a3.515,3.515,0,0,0-3.515,3.515V3755.6a3.515,3.515,0,0,0,3.515,3.515h10.545a3.516,3.516,0,0,0,3.515-3.515Zm80.845,25.672" fill="#2d6bd6"/>
    <path id="Trazado_2875" data-name="Trazado 2875" d="M-5607.331,3654.624v12.89a1.759,1.759,0,0,1-1.758,1.758,1.759,1.759,0,0,1-1.757-1.758v-8.48l-33.523,33.524a1.761,1.761,0,0,1-2.486,0l-10.821-10.823-40.63,37.856a1.746,1.746,0,0,1-1.2.473,1.749,1.749,0,0,1-1.285-.559,1.755,1.755,0,0,1,.086-2.484l41.871-39.013a1.756,1.756,0,0,1,2.442.042l10.779,10.779,32.448-32.45h-8.815a1.757,1.757,0,0,1-1.757-1.757,1.758,1.758,0,0,1,1.757-1.758h12.89a1.76,1.76,0,0,1,1.758,1.76Zm0,0" fill="#dd2a44"/>
    <path id="Trazado_2876" data-name="Trazado 2876" d="M-5645.625,3703.964c-9.294-5.062-20.978-7.85-32.9-7.85s-23.6,2.788-32.9,7.85a6.758,6.758,0,0,0-3.731,5.908v8.192c0,4.679,4.47,8.487,9.968,8.487h53.322c5.5,0,9.968-3.808,9.968-8.487v-8.192a6.758,6.758,0,0,0-3.733-5.908Zm.218,14.1c0,2.743-2.894,4.974-6.453,4.974h-53.322c-3.559,0-6.453-2.231-6.453-4.974v-8.192a3.308,3.308,0,0,1,1.9-2.82c8.789-4.787,19.875-7.421,31.216-7.421s22.428,2.634,31.217,7.421a3.305,3.305,0,0,1,1.9,2.82Zm0,0" fill="#bf6121"/>
    <path id="Trazado_2877" data-name="Trazado 2877" d="M-5626.491,3715.487h-104.06a13.09,13.09,0,0,0-13.089,13.089v19.26a90.084,90.084,0,0,0,73.672,63.813h0a90.791,90.791,0,0,0,12.713.891,89.565,89.565,0,0,0,43.853-11.391v-72.574A13.09,13.09,0,0,0-5626.491,3715.487Z" fill="#bf6121"/>
    <path id="Trazado_2878" data-name="Trazado 2878" d="M-5609.8,3729.14V3741.3a9.806,9.806,0,0,1-4.181,8.041c-17.624,12.315-40.082,19.693-64.537,19.693s-46.913-7.378-64.537-19.693a9.807,9.807,0,0,1-4.182-8.041v-12.156a13.813,13.813,0,0,1,13.813-13.813h109.811a13.811,13.811,0,0,1,13.813,13.811Zm0,0" fill="#d87a3a"/>
    <path id="Trazado_2879" data-name="Trazado 2879" d="M-5663.8,3764.8h-29.45a3.274,3.274,0,0,0-3.273,3.273v3.272a3.272,3.272,0,0,0,3.273,3.273h29.45a3.272,3.272,0,0,0,3.273-3.273v-3.272A3.274,3.274,0,0,0-5663.8,3764.8Z" fill="#ffc82e"/>
    <path id="Trazado_2880" data-name="Trazado 2880" d="M-5649.059,3699.661c-8.057-3.595-18.324-5.748-29.5-5.748a84.671,84.671,0,0,0-9.24.5l-.023,0a68.626,68.626,0,0,0-20.24,5.245,2.782,2.782,0,0,0-1.913,2.349v1.451c0,2.228,2.829,4.032,6.316,4.032h50.2c3.488,0,6.314-1.8,6.314-4.032v-1.451A2.782,2.782,0,0,0-5649.059,3699.661Z" fill="#d87a3a"/>
    <g id="Grupo_9203" data-name="Grupo 9203">
      <path id="Trazado_2881" data-name="Trazado 2881" d="M-5632.218,3656.65a1.759,1.759,0,0,1-1.758,1.758h-8.948a1.759,1.759,0,0,1-1.758-1.758,1.758,1.758,0,0,1,1.758-1.757h8.948a1.758,1.758,0,0,1,1.758,1.757Zm0,0" fill="#7e9e0b"/>
      <path id="Trazado_2882" data-name="Trazado 2882" d="M-5633.251,3664.735a1.757,1.757,0,0,1-1.757,1.757h-6.884a1.757,1.757,0,0,1-1.757-1.757,1.758,1.758,0,0,1,1.757-1.758h6.884a1.758,1.758,0,0,1,1.757,1.758Zm-8.641-14.412h6.884a1.758,1.758,0,0,0,1.757-1.757,1.758,1.758,0,0,0-1.757-1.758h-6.884a1.758,1.758,0,0,0-1.757,1.758,1.758,1.758,0,0,0,1.757,1.757Zm0,0" fill="#7e9e0b"/>
    </g>
  </g>
</svg>
