<svg xmlns="http://www.w3.org/2000/svg" width="179.969" height="179.969" viewBox="0 0 179.969 179.969">
  <g id="Grupo_9202" data-name="Grupo 9202" transform="translate(5186.772 -3632.572)">
    <path id="Trazado_2854" data-name="Trazado 2854" d="M-5014.5,3744.192c-.363,1.269,3.5,5.641,3.083,6.886a90.025,90.025,0,0,1-85.371,61.463,90,90,0,0,1-81.986-52.844c-.4-.873,1.966-1.758,1.6-2.645-4.412-10.624-4.005-43.3-2.693-49.416.171-.792-4.547-5.636-4.355-6.42a90.021,90.021,0,0,1,87.438-68.644,90.024,90.024,0,0,1,85.607,62.185c.329,1.009-3.632,6.3-3.339,7.325,2.242,7.863,2.264,34.248.02,42.11Zm0,0" fill="#5fc6ff"/>
    <path id="Trazado_2855" data-name="Trazado 2855" d="M-5077.8,3778.059l-19.878-47.989,14-5.8,20.109,1.042,25.2-10.437,13.251,31.994-25.195,10.435-13.483,14.957Zm0,0" fill="#ffdecf"/>
    <path id="Trazado_2856" data-name="Trazado 2856" d="M-5046.856,3765.143a6.492,6.492,0,0,1-8.483,3.515l-4-1.656a6.491,6.491,0,0,1,3.513,8.483,6.493,6.493,0,0,1-8.483,3.514l-4-1.656a6.492,6.492,0,0,1,3.512,8.482,6.494,6.494,0,0,1-8.484,3.515l-4-1.657a6.492,6.492,0,0,1,3.513,8.484,6.492,6.492,0,0,1-8.484,3.513l-44.811-18.562a21.742,21.742,0,0,1-8.036-5.77l-6.167-7.039a21.719,21.719,0,0,0-8.035-5.772l-19.618-8.125,13.251-31.994,19.618,8.126a21.74,21.74,0,0,0,9.763,1.6l9.337-.616a21.723,21.723,0,0,1,9.765,1.6l8.819,3.653,47.991,19.878a6.493,6.493,0,0,1,3.513,8.483Zm0,0" fill="#d47f6c"/>
    <path id="Trazado_2857" data-name="Trazado 2857" d="M-5073.043,3731.648l-19.51,8.081-3.121,7.535a8.659,8.659,0,0,1-11.312,4.687,4.33,4.33,0,0,1-2.342-5.657l5.8-14a6.475,6.475,0,0,1,3.523-3.537l21.994-9.11a6.494,6.494,0,0,1,8.484,3.514,6.49,6.49,0,0,1-3.514,8.483Zm0,0" fill="#ffdecf"/>
    <path id="Trazado_2858" data-name="Trazado 2858" d="M-5105.32,3752.453a8.705,8.705,0,0,1-1.635-.489,4.354,4.354,0,0,1-2.367-5.683l5.79-13.981a6.478,6.478,0,0,1,3.525-3.539l21.994-9.11a6.5,6.5,0,0,1,7.317,1.659l.015.016c2.765,4.171,9.751,2.893,11.084,2.342l21.221-8.791,3.279,7.918-19.8,8.205a19.8,19.8,0,0,1-14.168-.441c-3.055-1.474-6.36-2.7-7.925-2.053l-19.734,8.175a6.465,6.465,0,0,0-3.522,3.537Zm0,0" fill="#ffcdbe"/>
    <path id="Trazado_2859" data-name="Trazado 2859" d="M-5008.088,3707.419c-.02-.139-.03-.278-.055-.418-.019-.112-.044-.222-.064-.335-.015-.083-.025-.169-.04-.253l-.008,0a89.3,89.3,0,0,0-2.925-11.66l-37.986,15.733a4.329,4.329,0,0,0-2.342,5.655l5.337,12.887,0,.005,11.225,27.1a4.329,4.329,0,0,0,5.655,2.343l17.872-7.4a89.935,89.935,0,0,0,4.613-28.521A90.558,90.558,0,0,0-5008.088,3707.419Z" fill="#f7b126"/>
    <path id="Trazado_2860" data-name="Trazado 2860" d="M-5046.911,3765.272a6.612,6.612,0,0,1-8.6,3.315l-34.022-14.093a3.246,3.246,0,0,1-1.758-4.242,3.248,3.248,0,0,1,4.242-1.757l34.193,14.164a6.491,6.491,0,0,0,6.439-.848,6.482,6.482,0,0,1-.5,3.461Zm-8.474,6.881a6.492,6.492,0,0,1-6.439.848l-34.192-14.165a3.247,3.247,0,0,0-4.242,1.758,3.246,3.246,0,0,0,1.757,4.242l34.023,14.093a6.613,6.613,0,0,0,8.6-3.316,6.477,6.477,0,0,0,.494-3.46Zm-8.969,10.34a6.491,6.491,0,0,1-6.439.848l-34.192-14.163a3.247,3.247,0,0,0-4.242,1.758,3.246,3.246,0,0,0,1.757,4.241l34.023,14.092a6.614,6.614,0,0,0,8.6-3.315,6.464,6.464,0,0,0,.494-3.461Zm-8.969,10.342a6.494,6.494,0,0,1-6.438.848l-34.193-14.165c-.544-.225-15.164-6.647-17.478-9.214l-6.452-7.156a23.281,23.281,0,0,0-8.366-5.91l-20.345-8.426-2.319,5.6,20.344,8.426c6.454,3.133,12.268,12.142,12.268,12.142a23.213,23.213,0,0,0,8.367,5.908l11.7,4.712,33.823,14.011a6.614,6.614,0,0,0,8.6-3.318,6.443,6.443,0,0,0,.494-3.458Zm0,0" fill="#b2705b"/>
    <path id="Trazado_2861" data-name="Trazado 2861" d="M-5083.418,3796.853l-2.483,6a4.328,4.328,0,0,1-5.656,2.343l-4-1.656a4.328,4.328,0,0,1-2.341-5.655,4.334,4.334,0,0,1-5.657,2.343l-4-1.657a4.331,4.331,0,0,1-2.343-5.657,4.326,4.326,0,0,1-5.655,2.343l-4-1.657a4.327,4.327,0,0,1-2.344-5.654,4.331,4.331,0,0,1-5.655,2.343l-4-1.657a4.33,4.33,0,0,1-2.342-5.657l2.485-6a6.493,6.493,0,0,1,8.483-3.515,6.494,6.494,0,0,1,3.513,8.484,6.5,6.5,0,0,1,8.484-3.513,6.494,6.494,0,0,1,3.515,8.483,6.5,6.5,0,0,1,8.484-3.515,6.5,6.5,0,0,1,3.513,8.484,6.492,6.492,0,0,1,8.483-3.513,6.489,6.489,0,0,1,3.513,8.483Zm0,0" fill="#ffdecf"/>
    <path id="Trazado_2862" data-name="Trazado 2862" d="M-5126.5,3790.574a4.363,4.363,0,0,1-1.051-.287l-4-1.657a4.33,4.33,0,0,1-2.342-5.657l2.485-6a6.493,6.493,0,0,1,8.483-3.515,6.484,6.484,0,0,1,2.668,2.046,6.488,6.488,0,0,0-5.152,3.954l-2.486,6a4.33,4.33,0,0,0,1.4,5.115Zm10.6-.147,2.485-6a6.491,6.491,0,0,1,5.151-3.952,6.453,6.453,0,0,0-2.667-2.045,6.5,6.5,0,0,0-8.484,3.513l-2.484,6a4.327,4.327,0,0,0,2.344,5.654l4,1.657a4.342,4.342,0,0,0,1.052.288,4.33,4.33,0,0,1-1.4-5.116Zm12,4.971,2.485-6a6.489,6.489,0,0,1,5.151-3.954,6.475,6.475,0,0,0-2.665-2.046,6.5,6.5,0,0,0-8.484,3.515l-2.486,6a4.331,4.331,0,0,0,2.343,5.657l4,1.657a4.45,4.45,0,0,0,1.052.287,4.33,4.33,0,0,1-1.4-5.115Zm12,4.969,2.486-6a6.49,6.49,0,0,1,5.152-3.953,6.454,6.454,0,0,0-2.668-2.045,6.492,6.492,0,0,0-8.483,3.513l-2.484,6a4.328,4.328,0,0,0,2.341,5.655l4,1.656a4.33,4.33,0,0,0,1.051.288,4.332,4.332,0,0,1-1.4-5.115Zm0,0" fill="#ffcdbe"/>
    <path id="Trazado_2863" data-name="Trazado 2863" d="M-5029.693,3718.371a4.885,4.885,0,0,1-6.38,2.644,4.885,4.885,0,0,1-2.643-6.38,4.884,4.884,0,0,1,6.38-2.643,4.884,4.884,0,0,1,2.643,6.379Zm0,0" fill="#ffde91"/>
    <path id="Trazado_2864" data-name="Trazado 2864" d="M-5065.152,3649.615v45.969a6.5,6.5,0,0,1-6.5,6.5h-24.706a1.514,1.514,0,0,1-.112.221l-10.292,16.795a1.5,1.5,0,0,1-2.552,0L-5119.6,3702.3a1.746,1.746,0,0,1-.113-.221h-24.7a6.5,6.5,0,0,1-6.5-6.5v-45.969a6.5,6.5,0,0,1,6.5-6.5h72.772a6.5,6.5,0,0,1,6.5,6.5Zm0,0" fill="#c0e54c"/>
    <path id="Trazado_2865" data-name="Trazado 2865" d="M-5105.575,3671.941a20.388,20.388,0,0,1-20.387,20.387,20.388,20.388,0,0,1-20.387-20.387,20.388,20.388,0,0,1,20.387-20.388,20.388,20.388,0,0,1,20.387,20.388Zm0,0" fill="#a5d130"/>
    <path id="Trazado_2866" data-name="Trazado 2866" d="M-5095.6,3662.8a1.758,1.758,0,0,1,1.757-1.757h8.947a1.757,1.757,0,0,1,1.758,1.757,1.757,1.757,0,0,1-1.758,1.758h-8.947a1.758,1.758,0,0,1-1.757-1.758Zm20.467,6.327h-18.71a1.759,1.759,0,0,0-1.757,1.758,1.759,1.759,0,0,0,1.757,1.758h18.71a1.759,1.759,0,0,0,1.758-1.758,1.759,1.759,0,0,0-1.758-1.758Zm-5.975,8.085h-12.735a1.758,1.758,0,0,0-1.757,1.758,1.758,1.758,0,0,0,1.757,1.757h12.735a1.757,1.757,0,0,0,1.757-1.757,1.757,1.757,0,0,0-1.757-1.758Zm0,0" fill="#7e9e0b"/>
    <path id="Trazado_2867" data-name="Trazado 2867" d="M-5102.089,3657.2l-23.86,23.86a2.1,2.1,0,0,1-1.492.617,2.1,2.1,0,0,1-1.49-.617l-10.509-10.508a2.107,2.107,0,0,1,0-2.982,2.108,2.108,0,0,1,2.982,0l9.017,9.016,22.37-22.37a2.109,2.109,0,0,1,2.982,0,2.11,2.11,0,0,1,0,2.984Zm0,0" fill="#fff"/>
    <path id="Trazado_2868" data-name="Trazado 2868" d="M-5160.572,3762.551l-8.8-3.645a4.328,4.328,0,0,1-2.344-5.655l13.253-31.992a4.327,4.327,0,0,1,5.655-2.344l8.8,3.645a4.33,4.33,0,0,1,2.343,5.655l-13.253,31.993a4.328,4.328,0,0,1-5.655,2.343Zm0,0" fill="#e8eaea"/>
    <path id="Trazado_2869" data-name="Trazado 2869" d="M-5156.349,3712.762l-27.876-11.546a90.2,90.2,0,0,0-2.547,21.341,90.175,90.175,0,0,0,2.619,21.624c0,.01,0,.02,0,.03s.009.03.012.045c.009.037.017.075.027.112l0,0a89.334,89.334,0,0,0,5.331,15.327l2.547,1.056a4.33,4.33,0,0,0,5.657-2.343l4.638-11.2h0l11.927-28.794A4.33,4.33,0,0,0-5156.349,3712.762Z" fill="#e9385a"/>
    <path id="Trazado_2870" data-name="Trazado 2870" d="M-5147.058,3728.792a3.462,3.462,0,0,1-4.523,1.875,3.461,3.461,0,0,1-1.875-4.524,3.461,3.461,0,0,1,4.524-1.875,3.462,3.462,0,0,1,1.874,4.524Zm0,0" fill="#a6aee5"/>
  </g>
</svg>
