<svg xmlns="http://www.w3.org/2000/svg" width="171.56" height="209.946" viewBox="0 0 171.56 209.946">
  <g id="Grupo_9223" data-name="Grupo 9223" transform="translate(5168.856 -7386.255)">
    <path id="Trazado_2950" data-name="Trazado 2950" d="M-5016.368,7505.019c-3.8-3.2-7.586-6.307-9.054-11.983-3.616-13.985,2.48-16.137-1.7-29.978s-14.41-10.608-18.587-24.449a17.874,17.874,0,0,1-.806-4.916,36.585,36.585,0,0,0,1.26-6.514c.043-.387.074-.783.1-1.165a37.014,37.014,0,0,0-1.1-11.89,37.17,37.17,0,0,0-45.285-26.677,37.172,37.172,0,0,0-26.687,45.288,37.012,37.012,0,0,0,4.8,10.936c.205.323.419.633.634.953l.013.008a36.778,36.778,0,0,0,4.278,5.114,18.213,18.213,0,0,1,1.663,4.674c3.056,14.13-7.451,16.26-4.4,30.391s9.431,13.058,13.048,27.043c1.467,5.676-.333,10.226-2.12,14.872-1.764,4.651-3.514,9.4-1.953,15.437a32.39,32.39,0,0,0,39.475,23.253l32.37-8.37a32.38,32.38,0,0,0,23.243-39.472C-5008.739,7511.536-5012.571,7508.231-5016.368,7505.019Z" fill="#40327a"/>
    <path id="Trazado_2951" data-name="Trazado 2951" d="M-5124.594,7508.067a12.915,12.915,0,0,1,1.041-4.555l-.014-.006,10.789-25.293.009,0a13,13,0,0,1,12.5-7.892l48.3,2.006a8,8,0,0,1,7.338,10.265L-5067,7558.1h0a23.251,23.251,0,0,1-24.195,22.266,23.252,23.252,0,0,1-22.267-24.2l-.165-34.731A13,13,0,0,1-5124.594,7508.067Z" fill="#ffc7bd"/>
    <path id="Trazado_2952" data-name="Trazado 2952" d="M-5051.093,7596.2v-9.772a34.627,34.627,0,0,0-13.382-27.343l-2.5-1.947h-46.5a57.644,57.644,0,0,0-6,25.595V7596.2Z" fill="#8b77e8"/>
    <path id="Trazado_2953" data-name="Trazado 2953" d="M-5168.785,7507.818l8.617-67.075-3.526-10.241h.007a6.967,6.967,0,0,1-.387-2.27,7,7,0,0,1,6.991-7.009,6.953,6.953,0,0,1,3.025.69v-11.367a2,2,0,0,1,2-2,2,2,0,0,1,2,2v20h-.013l.013,9.668h0l.088,68.809Z" fill="#ff95a9"/>
    <path id="Trazado_2954" data-name="Trazado 2954" d="M-5168.775,7507.818h-.014l7.584-59.01,11.161.715.057,44.156,42.252-21.366a12.936,12.936,0,0,1,7.458-1.988,13,13,0,0,1,12.45,13.528,13,13,0,0,1-8.5,11.66l.026.061-59.818,22.315-.006-.015a9.439,9.439,0,0,1-11.919-4.986A9.393,9.393,0,0,1-5168.775,7507.818Z" fill="#ffc7bd"/>
    <rect id="Rectángulo_3528" data-name="Rectángulo 3528" width="6.246" height="2" transform="matrix(0.127, -0.992, 0.992, 0.127, -5163.68, 7460.215)" fill="#ff95a9"/>
    <rect id="Rectángulo_3529" data-name="Rectángulo 3529" width="3.425" height="2" transform="translate(-5164.457 7466.259) rotate(-82.675)" fill="#ff95a9"/>
    <path id="Trazado_2955" data-name="Trazado 2955" d="M-5111.6,7522.607a13.983,13.983,0,0,0,2.683-.259l-.384-1.963a11.987,11.987,0,0,1-2.8.211,12.014,12.014,0,0,1-11.491-12.488,11.921,11.921,0,0,1,.961-4.2l.392-.918-.014-.006,6.9-16.177-1.839-.785-7.685,18.014.045.019a13.827,13.827,0,0,0-.76,3.975,14.017,14.017,0,0,0,13.407,14.568C-5111.991,7522.6-5111.8,7522.607-5111.6,7522.607Z" fill="#ff95a9"/>
    <path id="Trazado_2956" data-name="Trazado 2956" d="M-5105.62,7521.261a13.955,13.955,0,0,0,4.31-3.186l-1.473-1.351a12,12,0,0,1-3.7,2.73Z" fill="#ff95a9"/>
    <path id="Trazado_2957" data-name="Trazado 2957" d="M-5107.328,7434.048l7.923-30.346,36.878,7.231-3.658,18.656.981.193a5,5,0,0,1,3.944,5.869,5,5,0,0,1-5.868,3.944l-.981-.193-4.446,32.073,9.933.413-36.2,21.65.959-23.114,3.278.137c.015-.35.044-.7.093-1.055l2.079-15-2.352-.461A16.207,16.207,0,0,1-5107.328,7434.048Z" fill="#ff95a9"/>
    <path id="Trazado_2958" data-name="Trazado 2958" d="M-5066.185,7429.59l.981.192,5.558-28.345-29.211-5.728a14.234,14.234,0,0,0-16.706,11.229l-.109.555.982.193a39.131,39.131,0,0,1,21.628,12.3h0a30.534,30.534,0,0,0,16.877,9.6Z" fill="#40327a"/>
    <path id="Trazado_2959" data-name="Trazado 2959" d="M-5057.957,7571.592l9.474-1.6,32.492-57.928,15.808,10.274-41.1,55.178-.009-.006a4.969,4.969,0,0,1-1.616,1.387l.007.021-10.543,5.73,0-.006a6.98,6.98,0,0,1-2.174.757,7,7,0,0,1-8.07-5.735A7,7,0,0,1-5057.957,7571.592Z" fill="#ff95a9"/>
    <path id="Trazado_2960" data-name="Trazado 2960" d="M-5064.05,7478.589a13,13,0,0,1,17.845-4.42,12.762,12.762,0,0,1,1.386.979l.008-.012,42.949,34.16-.006.009a9.44,9.44,0,0,1,2.355,12,9.474,9.474,0,0,1-.678,1.027l.012.007-35.543,47.711-9.377-6.1,24.628-43.908-39.158-23.609A13,13,0,0,1-5064.05,7478.589Z" fill="#ffc7bd"/>
    <path id="Trazado_2961" data-name="Trazado 2961" d="M-5002.672,7527.358l3.912-5.252-.046-.032c.057-.094.112-.188.165-.282a10.388,10.388,0,0,0-1.915-12.671l.021-.033-.705-.575-13.591-10.81-1.245,1.565,13.585,10.819a8.4,8.4,0,0,1,2.1,10.727,8.22,8.22,0,0,1-.606.918l-.618.828.011.009-2.677,3.593Z" fill="#ff95a9"/>
    <rect id="Rectángulo_3530" data-name="Rectángulo 3530" width="1.999" height="4.799" transform="translate(-5022.875 7493.86) rotate(-51.49)" fill="#ff95a9"/>
    <rect id="Rectángulo_3531" data-name="Rectángulo 3531" width="7.278" height="2" transform="translate(-5090.288 7556.146) rotate(-0.061)" fill="#624ac9"/>
    <rect id="Rectángulo_3532" data-name="Rectángulo 3532" width="16.625" height="2" transform="translate(-5110.942 7556.139)" fill="#624ac9"/>
    <path id="Trazado_2962" data-name="Trazado 2962" d="M-5091.871,7440.678a15.047,15.047,0,0,0,2.862-.276l-.379-1.962a13.083,13.083,0,0,1-5.745-.175,13.41,13.41,0,0,1-2.512-.918l-.872,1.8a15.393,15.393,0,0,0,2.89,1.054A15.133,15.133,0,0,0-5091.871,7440.678Z" fill="#e5659b"/>
  </g>
</svg>
