<svg xmlns="http://www.w3.org/2000/svg" width="210.649" height="209.946" viewBox="0 0 210.649 209.946">
  <g id="Grupo_10859" data-name="Grupo 10859" transform="translate(-3933.83 -1921.883)">
    <path id="Trazado_7098" data-name="Trazado 7098" d="M4106.207,2053.477c-2.978-3.982-5.953-7.866-6.092-13.727-.343-14.441,6.083-15.151,5.161-29.579s-11.621-13.606-12.542-28.034a17.9,17.9,0,0,1,.332-4.971,36.558,36.558,0,0,0,2.708-6.056c.131-.368.25-.746.359-1.113a37.169,37.169,0,1,0-70.5,1.673c.127.361.264.712.4,1.073l.011.011a36.854,36.854,0,0,0,3,5.952,18.225,18.225,0,0,1,.556,4.929c-.236,14.455-10.952,14.141-11.188,28.6s6.216,14.859,6.559,29.3c.139,5.86-2.649,9.882-5.446,14-2.775,4.128-5.558,8.353-5.41,14.588a32.389,32.389,0,0,0,33.155,31.618l33.426-.793a32.38,32.38,0,0,0,31.607-33.154C4112.155,2061.558,4109.175,2057.469,4106.207,2053.477Z" fill="#40327a"/>
    <g id="Grupo_10858" data-name="Grupo 10858">
      <path id="Trazado_7099" data-name="Trazado 7099" d="M3945.657,2102.869l7.85-7.464,64.589-20.04-6.726-17.614-62.547,28.68h0l-10.908,5a7,7,0,1,0,7.739,11.431Z" fill="#ff95a9"/>
      <path id="Trazado_7100" data-name="Trazado 7100" d="M4019.245,2074.925a9.406,9.406,0,0,0,3.7-3.031l.018.011,31.751-44.759-.011-.006a13.36,13.36,0,0,0,.9-1.438,13,13,0,1,0-22.97-12.182h0l-24.164,45.56-51.184,23.468,3.988,10.449,56.823-17.628,0-.013A9.463,9.463,0,0,0,4019.245,2074.925Z" fill="#ffc7bd"/>
      <path id="Trazado_7101" data-name="Trazado 7101" d="M3994.7,2083.673l-.592-1.911,22.686-7.037h0l1-.323a8.344,8.344,0,0,0,1.032-.385,8.447,8.447,0,0,0,3.306-2.71l.537-.74.01.006,12.516-17.644,1.631,1.157-13.586,19.154-.063-.038a10.446,10.446,0,0,1-3.517,2.633c-.094.043-.191.085-.289.126l.015.041-1,.323Z" fill="#ff95a9"/>
      <rect id="Rectángulo_4431" data-name="Rectángulo 4431" width="12.406" height="2" transform="translate(3978.488 2086.607) rotate(-17.211)" fill="#ff95a9"/>
      <rect id="Rectángulo_4432" data-name="Rectángulo 4432" width="14.813" height="2" transform="matrix(0.579, -0.815, 0.815, 0.579, 4039.469, 2046.975)" fill="#ff95a9"/>
    </g>
    <path id="Trazado_7102" data-name="Trazado 7102" d="M4032.456,2092.326l-.282-72.8a13,13,0,0,1,13.551-13.038l48.3,2.047a8,8,0,0,1,7.33,10.272l-22.435,75.487h0a23.251,23.251,0,1,1-46.46-1.97Z" fill="#ffc7bd"/>
    <path id="Trazado_7103" data-name="Trazado 7103" d="M4094.83,2131.829V2122.6a34.627,34.627,0,0,0-13.382-27.343l-2.506-1.947h-46.5a57.644,57.644,0,0,0-5.995,25.6v12.919Z" fill="#8b77e8"/>
    <path id="Trazado_7104" data-name="Trazado 7104" d="M4035.226,1974.868l3.26-31.194,37.547,1.592-.806,18.994,1,.043a5,5,0,0,1-.423,9.991l-1-.043-.269,6.345-.465,10.957-.093,2.181-.59,13.927h0l9.984.424-36.219,21.618.98-23.112,3.275.138h0l.59-13.927-1.338-.057A16.207,16.207,0,0,1,4035.226,1974.868Z" fill="#ff95a9"/>
    <path id="Trazado_7105" data-name="Trazado 7105" d="M4082.517,2107.528l9.2.17,35.345-55.712,15.229,11.115-44.03,52.871-.026-.019a4.971,4.971,0,0,1-2.276,1.533l0,.023-11.421,3.681v-.007a7,7,0,1,1-2.02-13.655Z" fill="#ff95a9"/>
    <path id="Trazado_7106" data-name="Trazado 7106" d="M4082.678,2013.614a12.918,12.918,0,0,1,19.478-1.515l.008-.01,38.3,37.243a9.439,9.439,0,0,1,2.545,12.775,9.306,9.306,0,0,1-.732.988l.011.008-38.075,45.717-9.032-6.6,27.12-42.748-37-27.666h0A13,13,0,0,1,4082.678,2013.614Z" fill="#ffc7bd"/>
    <rect id="Rectángulo_4433" data-name="Rectángulo 4433" width="2" height="37.007" transform="translate(4106.839 2018.198) rotate(-45.956)" fill="#ff95a9"/>
    <rect id="Rectángulo_4434" data-name="Rectángulo 4434" width="2" height="3.536" transform="translate(4135.868 2046.271) rotate(-44.998)" fill="#ff95a9"/>
    <rect id="Rectángulo_4435" data-name="Rectángulo 4435" width="12.717" height="2" transform="translate(4032.362 2092.309)" fill="#624ac9"/>
    <path id="Trazado_7107" data-name="Trazado 7107" d="M4075.227,1964.26l1,.043,1.223-28.859-29.74-1.261a14.234,14.234,0,0,0-14.824,13.618l-.024.565,1,.043a39.12,39.12,0,0,1,23.234,8.9h0a30.534,30.534,0,0,0,18.131,6.948Z" fill="#40327a"/>
    <path id="Trazado_7108" data-name="Trazado 7108" d="M4047.584,1978.957a15.045,15.045,0,0,0,5.74-1.131l-.759-1.85a13.035,13.035,0,0,1-5.666.964,13.229,13.229,0,0,1-2.643-.4l-.5,1.938a15.357,15.357,0,0,0,3.041.463Q4047.193,1978.958,4047.584,1978.957Z" fill="#e5659b"/>
  </g>
</svg>
