<svg xmlns="http://www.w3.org/2000/svg" width="632.323" height="399.334" viewBox="0 0 632.323 399.334">
  <g id="Grupo_11018" data-name="Grupo 11018" transform="translate(-3448.594 -5653.428)">
    <path id="Trazado_8447" data-name="Trazado 8447" d="M3635.339,5774.335H3624.28v-76.716h11.059v76.716Z" fill="#f0eeff"/>
    <path id="Trazado_8448" data-name="Trazado 8448" d="M3651.095,5774.335h-11.06V5720h11.06v54.332Z" fill="#f0eeff"/>
    <path id="Trazado_8449" data-name="Trazado 8449" d="M3666.847,5804.307H3655.79v-55.316h11.057v55.316Z" fill="#f0eeff"/>
    <path id="Trazado_8450" data-name="Trazado 8450" d="M3682.6,5832.965h-11.057v-74.694H3682.6v74.694Z" fill="#f0eeff"/>
    <path id="Trazado_8451" data-name="Trazado 8451" d="M3729.868,5748.991h-11.06v-33.715h11.06v33.715Z" fill="#f0eeff"/>
    <path id="Trazado_8452" data-name="Trazado 8452" d="M3745.623,5761.756h-11.06v-37.232h11.06v37.232Z" fill="#f0eeff"/>
    <path id="Trazado_8453" data-name="Trazado 8453" d="M3761.375,5790.747h-11.057v-54.77h11.057v54.77Z" fill="#f0eeff"/>
    <path id="Trazado_8454" data-name="Trazado 8454" d="M3808.641,5774.335h-11.06v-29.6h11.06v29.6Z" fill="#f0eeff"/>
    <path id="Trazado_8455" data-name="Trazado 8455" d="M3714.113,5774.335h-11.06v-89.614h11.06v89.614Z" fill="#f8f7ff"/>
    <path id="Trazado_8456" data-name="Trazado 8456" d="M3619.584,5785.425h-11.058V5672.282h11.058v113.143Z" fill="#f8f7ff"/>
    <path id="Trazado_8457" data-name="Trazado 8457" d="M3603.83,5729.529h-11.059V5706.74h11.059v22.789Z" fill="#f8f7ff"/>
    <path id="Trazado_8458" data-name="Trazado 8458" d="M3588.075,5751.168h-11.058v-28.758h11.058v28.758Z" fill="#f8f7ff"/>
    <path id="Trazado_8459" data-name="Trazado 8459" d="M3572.32,5758.271h-11.058v-26.137h11.058v26.137Z" fill="#f8f7ff"/>
    <path id="Trazado_8460" data-name="Trazado 8460" d="M3540.811,5747.169h-11.058v-12.442h11.058v12.442Z" fill="#f8f7ff"/>
    <path id="Trazado_8461" data-name="Trazado 8461" d="M3698.357,5793.936H3687.3v-55.05h11.057v55.05Z" fill="#f8f7ff"/>
    <path id="Trazado_8462" data-name="Trazado 8462" d="M3777.131,5774.335h-11.057v-67.6h11.057v67.6Z" fill="#f8f7ff"/>
    <path id="Trazado_8463" data-name="Trazado 8463" d="M3792.886,5754.78h-11.06v-64.74h11.06v64.74Z" fill="#f8f7ff"/>
    <path id="Trazado_8464" data-name="Trazado 8464" d="M3556.565,5739.135h-11.059v-23.048h11.059v23.048Z" fill="#f8f7ff"/>
    <path id="Trazado_8465" data-name="Trazado 8465" d="M3824.4,5729.529h-11.06v-19.252h11.06v19.252Z" fill="#f8f7ff"/>
    <path id="Trazado_8466" data-name="Trazado 8466" d="M3696.3,6000.012a57.531,57.531,0,0,0-7.743-18.677l10.174-10.158-17.655-17.64-10.159,10.159a57.96,57.96,0,0,0-18.661-7.743v-14.359H3627.3v14.359a57.988,57.988,0,0,0-18.663,7.743l-10.158-10.159-17.639,17.64L3591,5981.335a57.574,57.574,0,0,0-7.743,18.677h-14.359v24.943h48.9a24.975,24.975,0,0,1-3.294-12.471,25.272,25.272,0,1,1,50.544,0,24.975,24.975,0,0,1-3.294,12.471h48.906v-24.943Z" fill="#e9e6ff"/>
    <path id="Trazado_8467" data-name="Trazado 8467" d="M3569.958,6018.262h-2.128v-19.313H3582.4a58.458,58.458,0,0,1,7.241-17.462l-10.311-10.31,19.144-19.144,10.31,10.31a59.041,59.041,0,0,1,12.146-5.717l.682,2.015a56.872,56.872,0,0,0-12.407,5.953l-.72.46-10.011-10.012-16.134,16.135,10.01,10.009-.46.722a56.341,56.341,0,0,0-7.6,18.332l-.183.837h-14.151v17.185Zm95.459.273-2.072-.488a24.215,24.215,0,1,0-47.285-10.446l-2.084-.427a26.343,26.343,0,1,1,51.441,11.361Z" fill="#ccc2ff"/>
    <path id="Trazado_8468" data-name="Trazado 8468" d="M3989.983,6007.963a39.192,39.192,0,0,0-5.276-12.726l6.932-6.921-12.028-12.018-6.921,6.922a39.513,39.513,0,0,0-12.716-5.276v-9.781h-17v9.781a39.516,39.516,0,0,0-12.713,5.276l-6.922-6.922-12.017,12.018,6.921,6.921a39.169,39.169,0,0,0-5.275,12.726h-9.784v16.992H3936.5a17.026,17.026,0,0,1-2.243-8.5,17.219,17.219,0,1,1,34.437,0,17.027,17.027,0,0,1-2.244,8.5h33.317v-16.992Z" fill="#f2f0ff"/>
    <path id="Trazado_8469" data-name="Trazado 8469" d="M3968.983,6021.738l-2.036-.611a16.16,16.16,0,0,0-30.637-10.251l-2-.731a18.288,18.288,0,0,1,34.671,11.593Zm-66.864,3.225V6006.9h10a40.2,40.2,0,0,1,4.773-11.506l-7.075-7.075,13.521-13.519,7.076,7.072a40.5,40.5,0,0,1,11.5-4.77v-10h19.131v10a40.514,40.514,0,0,1,11.5,4.77l7.075-7.072,13.532,13.519-7.086,7.075a40.193,40.193,0,0,1,4.773,11.506h10v18.058H3998.7v-15.93h-9.573l-.185-.836a38.045,38.045,0,0,0-5.132-12.38l-.462-.721,6.783-6.772-10.521-10.511-6.772,6.773-.722-.46a38.3,38.3,0,0,0-12.371-5.134l-.835-.185v-9.573h-14.874v9.573l-.835.185a38.306,38.306,0,0,0-12.371,5.134l-.721.46-6.773-6.773-10.513,10.511,6.773,6.774-.46.719a38.091,38.091,0,0,0-5.132,12.38l-.184.836h-9.574v15.938Z" fill="#ddd6ff"/>
    <path id="Trazado_8470" data-name="Trazado 8470" d="M3999.766,5954.821a9.153,9.153,0,1,1,9.153-9.152,9.155,9.155,0,0,1-9.153,9.152Zm20.962-9.152a20.98,20.98,0,0,0-.567-4.834l4.839-2.794-6.007-10.412-4.847,2.8a20.922,20.922,0,0,0-8.372-4.845V5920h-12.017v5.584a20.949,20.949,0,0,0-8.372,4.845l-4.842-2.8-6.012,10.412,4.841,2.794a20.963,20.963,0,0,0,0,9.67l-4.841,2.793,6.012,10.411,4.842-2.8a20.921,20.921,0,0,0,8.372,4.84v5.588h12.017v-5.588a20.894,20.894,0,0,0,8.372-4.84l4.847,2.8L4025,5953.3l-4.839-2.793a20.981,20.981,0,0,0,.567-4.836Z" fill="#f2f0ff"/>
    <path id="Trazado_8471" data-name="Trazado 8471" d="M3999.766,5937.579a8.088,8.088,0,1,0,8.087,8.09,8.1,8.1,0,0,0-8.087-8.09Zm0,18.3a10.216,10.216,0,1,1,10.215-10.215,10.229,10.229,0,0,1-10.215,10.215Zm-4.947,14.392h9.892v-5.32l.76-.226a19.937,19.937,0,0,0,7.943-4.592l.578-.545,4.61,2.663,4.945-8.567-4.6-2.66.182-.768a19.824,19.824,0,0,0,0-9.183l-.182-.77,4.6-2.657-4.945-8.567-4.61,2.663-.578-.545a19.985,19.985,0,0,0-7.943-4.6l-.76-.228v-5.312h-9.892v5.312l-.757.228a19.979,19.979,0,0,0-7.945,4.6l-.578.545-4.608-2.663-4.947,8.567,4.608,2.657-.183.77a19.833,19.833,0,0,0,0,9.183l.183.768-4.608,2.66,4.947,8.567,4.608-2.663.578.545a19.939,19.939,0,0,0,7.942,4.592l.76.226v5.32Zm12.02,2.125h-14.148v-5.874a22.149,22.149,0,0,1-7.447-4.307l-5.091,2.942-7.075-12.254,5.09-2.937a21.924,21.924,0,0,1,0-8.6l-5.09-2.94,7.075-12.253,5.091,2.942a22.175,22.175,0,0,1,7.447-4.308v-5.874h14.148v5.874a22.11,22.11,0,0,1,7.448,4.308l5.1-2.942,7.07,12.253-5.088,2.94a21.924,21.924,0,0,1,0,8.6l5.088,2.937-7.07,12.254-5.1-2.942a22.082,22.082,0,0,1-7.448,4.307v5.874Z" fill="#ddd6ff"/>
    <path id="Trazado_8472" data-name="Trazado 8472" d="M3842.1,5770.439l-2.116-.2c.126-1.319.277-2.655.45-3.969l2.11.279q-.255,1.937-.444,3.894Z" fill="#b3a4f5"/>
    <path id="Trazado_8473" data-name="Trazado 8473" d="M3894.859,5895.1a128.109,128.109,0,0,1-29.143-20.224l21.644-23.453a96.267,96.267,0,0,0,21.883,15.191l-14.384,28.486Z" fill="#ddd6ff"/>
    <path id="Trazado_8474" data-name="Trazado 8474" d="M3952.226,5908.734a126.48,126.48,0,0,1-51.85-11.009l13-29.145a94.757,94.757,0,0,0,38.85,8.241,95.832,95.832,0,0,0,71.744-32.423l23.914,21.134a127.773,127.773,0,0,1-95.658,43.2Z" fill="#f2f0ff"/>
    <path id="Trazado_8475" data-name="Trazado 8475" d="M4055.511,5856.027l-25.808-18.771q.963-1.323,1.879-2.68l26.44,17.872c-.809,1.2-1.653,2.4-2.511,3.579Z" fill="#f2f0ff"/>
    <path id="Trazado_8476" data-name="Trazado 8476" d="M4073,5822.437l-30.183-10.361a95.047,95.047,0,0,0,3.509-13.311l31.37,5.88a127.238,127.238,0,0,1-4.7,17.792Z" fill="#e9e6ff"/>
    <path id="Trazado_8477" data-name="Trazado 8477" d="M4079.279,5793.5l-31.764-3.085c.3-3.081.449-6.223.449-9.339a95.741,95.741,0,0,0-132.575-88.369l-12.323-29.439a127.655,127.655,0,0,1,176.811,117.808c0,4.142-.2,8.322-.6,12.424Z" fill="#f2f0ff"/>
    <path id="Trazado_8478" data-name="Trazado 8478" d="M3880.829,5717.371l-23.8-21.261a127.8,127.8,0,0,1,36.555-28.4l14.7,28.325a95.992,95.992,0,0,0-27.459,21.337Z" fill="#f2f0ff"/>
    <path id="Trazado_8479" data-name="Trazado 8479" d="M3852.6,5860.824a127.924,127.924,0,0,1-28.032-79.744,126.1,126.1,0,0,1,13.776-57.657l28.45,14.457a95.573,95.573,0,0,0,10.7,102.98l-24.9,19.964Z" fill="#f2f0ff"/>
    <path id="Trazado_8480" data-name="Trazado 8480" d="M3952.226,5893.841v-2.128a110.676,110.676,0,0,0,107.534-136.682l2.069-.5a112.813,112.813,0,0,1-109.6,139.311Z" fill="#b3a4f5"/>
    <path id="Trazado_8481" data-name="Trazado 8481" d="M4056.911,5745.267q-.42-1.222-.868-2.431l2-.737q.454,1.233.883,2.478l-2.012.69Z" fill="#b3a4f5"/>
    <path id="Trazado_8482" data-name="Trazado 8482" d="M3845.622,5751.454l-2.051-.57a112.739,112.739,0,0,1,202.344-32.489l-1.766,1.187a110.611,110.611,0,0,0-198.527,31.872Z" fill="#b3a4f5"/>
    <path id="Trazado_8483" data-name="Trazado 8483" d="M3922.072,5889.747a113.21,113.21,0,0,1-81.01-89.686l2.1-.358a111.069,111.069,0,0,0,79.479,87.992l-.567,2.052Z" fill="#b3a4f5"/>
    <path id="Trazado_8484" data-name="Trazado 8484" d="M4040.519,5781.08a88.294,88.294,0,1,1-88.293-88.293,88.293,88.293,0,0,1,88.293,88.293Z" fill="#f8f7ff"/>
    <path id="Trazado_8485" data-name="Trazado 8485" d="M3912.026,5833.061h-19.1v-36.838h19.1v36.838Z" fill="#ccc2ff"/>
    <path id="Trazado_8486" data-name="Trazado 8486" d="M3935.3,5833.061h-19.1v-72.637h19.1v72.637Z" fill="#ccc2ff"/>
    <path id="Trazado_8487" data-name="Trazado 8487" d="M3935.3,5801.7h-19.1v-10.952h19.1V5801.7Z" fill="#ffb0bf"/>
    <path id="Trazado_8488" data-name="Trazado 8488" d="M3935.3,5790.747h-19.1v-5.476h19.1v5.476Z" fill="#ffd4cc"/>
    <path id="Trazado_8489" data-name="Trazado 8489" d="M3958.583,5833.061h-19.1v-62.724h19.1v62.724Z" fill="#ccc2ff"/>
    <path id="Trazado_8490" data-name="Trazado 8490" d="M3981.86,5833.061h-19.095v-114.6h19.095v114.6Z" fill="#ccc2ff"/>
    <path id="Trazado_8491" data-name="Trazado 8491" d="M4005.137,5833.061h-19.1v-95.1h19.1v95.1Z" fill="#ccc2ff"/>
    <path id="Trazado_8492" data-name="Trazado 8492" d="M3958.583,5801.7h-19.1v-5.476h19.1v5.476Z" fill="#ffb0bf"/>
    <path id="Trazado_8493" data-name="Trazado 8493" d="M3912.026,5812.657h-19.1v-5.476h19.1v5.476Z" fill="#ffb0bf"/>
    <path id="Trazado_8494" data-name="Trazado 8494" d="M3912.026,5807.181h-19.1v-5.476h19.1v5.476Z" fill="#ffd4cc"/>
    <path id="Trazado_8495" data-name="Trazado 8495" d="M3958.583,5796.223h-19.1v-5.476h19.1v5.476Z" fill="#ffd4cc"/>
    <path id="Trazado_8496" data-name="Trazado 8496" d="M3981.86,5801.7h-19.095v-21.882h19.095V5801.7Z" fill="#ffb0bf"/>
    <path id="Trazado_8497" data-name="Trazado 8497" d="M3981.86,5779.816h-19.095v-9.48h19.095v9.48Z" fill="#ffd4cc"/>
    <path id="Trazado_8498" data-name="Trazado 8498" d="M4005.137,5786.486h-19.1v-35.879h19.1v35.879Z" fill="#ffd4cc"/>
    <path id="Trazado_8499" data-name="Trazado 8499" d="M3935.3,5812.657h-19.1v-10.952h19.1v10.952Z" fill="#b3a4f5"/>
    <path id="Trazado_8500" data-name="Trazado 8500" d="M3912.026,5818.132h-19.1v-5.476h19.1v5.476Z" fill="#b3a4f5"/>
    <path id="Trazado_8501" data-name="Trazado 8501" d="M3981.86,5807.181h-19.095v-5.476h19.095v5.476Z" fill="#b3a4f5"/>
    <path id="Trazado_8502" data-name="Trazado 8502" d="M3958.583,5823.4h-19.1v-21.691h19.1V5823.4Z" fill="#b3a4f5"/>
    <path id="Trazado_8503" data-name="Trazado 8503" d="M4005.137,5801.754h-19.1V5791.73h19.1v10.024Z" fill="#b3a4f5"/>
    <path id="Trazado_8504" data-name="Trazado 8504" d="M4005.137,5791.73h-19.1v-5.476h19.1v5.476Z" fill="#ffb0bf"/>
    <path id="Trazado_8505" data-name="Trazado 8505" d="M3596.318,5913.275H3481.256V5798.212h115.062v115.063Z" fill="#f2f0ff"/>
    <path id="Trazado_8506" data-name="Trazado 8506" d="M3481.258,5864.855a5.78,5.78,0,1,0,5.779,5.781,5.788,5.788,0,0,0-5.779-5.781Zm0,13.688a7.908,7.908,0,1,1,7.906-7.907,7.918,7.918,0,0,1-7.906,7.907Zm-3.432,10.225h6.86v-3.909l.76-.226a14.61,14.61,0,0,0,5.833-3.374l.576-.544,3.39,1.956,3.429-5.94-3.383-1.954.182-.77a14.58,14.58,0,0,0,0-6.742l-.182-.77,3.383-1.954-3.429-5.943-3.39,1.959-.576-.544a14.688,14.688,0,0,0-5.834-3.377l-.759-.228v-3.9h-6.86v3.9l-.758.228a14.671,14.671,0,0,0-5.835,3.377l-.576.544-3.387-1.959-3.431,5.943,3.385,1.954-.181.77a14.545,14.545,0,0,0,0,6.742l.181.77-3.385,1.954,3.431,5.94,3.387-1.956.576.544a14.66,14.66,0,0,0,5.833,3.374l.76.226v3.909Zm8.988,2.126H3475.7v-4.469a16.846,16.846,0,0,1-5.332-3.084l-3.874,2.239-5.56-9.627,3.875-2.236a16.687,16.687,0,0,1,0-6.162l-3.875-2.236,5.56-9.626,3.874,2.238a16.867,16.867,0,0,1,5.332-3.085v-4.469h11.116v4.468a16.862,16.862,0,0,1,5.332,3.086l3.878-2.238,5.556,9.626-3.872,2.236a16.617,16.617,0,0,1,0,6.162l3.872,2.236-5.556,9.627-3.878-2.239a16.83,16.83,0,0,1-5.332,3.084v4.469Z" fill="#ddd6ff"/>
    <path id="Trazado_8507" data-name="Trazado 8507" d="M3596.32,5828.966a30.754,30.754,0,1,1,30.754-30.754,30.757,30.757,0,0,1-30.754,30.754Zm0-95.7a64.943,64.943,0,1,0,64.943,64.944,64.94,64.94,0,0,0-64.943-64.944Z" fill="#fff"/>
    <path id="Trazado_8508" data-name="Trazado 8508" d="M3565.943,5781.927l-23.423-12.595a61.008,61.008,0,0,1,53.8-32.17v26.594a34.451,34.451,0,0,0-30.375,18.171Z" fill="#ccc2ff"/>
    <path id="Trazado_8509" data-name="Trazado 8509" d="M3565.069,5783.67l-24.1-11.243c.483-1.034,1-2.074,1.551-3.091l23.427,12.587c-.31.577-.6,1.164-.876,1.747Z" fill="#fff"/>
    <path id="Trazado_8510" data-name="Trazado 8510" d="M3538.043,5816.452a61.245,61.245,0,0,1,2.924-44.025l24.1,11.243a34.634,34.634,0,0,0-1.644,24.842l-25.382,7.94Z" fill="#ddd6ff"/>
    <path id="Trazado_8511" data-name="Trazado 8511" d="M3545.806,5832.508a60.8,60.8,0,0,1-7.763-16.058l25.382-7.936a34.2,34.2,0,0,0,4.372,9.038l-21.991,14.956Z" fill="#fff"/>
    <path id="Trazado_8512" data-name="Trazado 8512" d="M3581.723,5857.5a60.976,60.976,0,0,1-35.918-25l21.992-14.953a34.423,34.423,0,0,0,20.267,14.123l-6.341,25.828Z" fill="#ccc2ff"/>
    <path id="Trazado_8513" data-name="Trazado 8513" d="M3596.318,5859.263a61.339,61.339,0,0,1-14.594-1.758l6.34-25.828a34.541,34.541,0,0,0,36.472-13.684l21.758,15.292a61.158,61.158,0,0,1-49.976,25.978Z" fill="#b3a4f5"/>
    <path id="Trazado_8514" data-name="Trazado 8514" d="M3646.294,5833.283,3624.534,5818q.5-.705.958-1.437l22.494,14.185c-.537.854-1.107,1.709-1.692,2.54Z" fill="#fff"/>
    <path id="Trazado_8515" data-name="Trazado 8515" d="M3647.988,5830.742l-22.5-14.183c.543-.862,1.054-1.757,1.518-2.662l23.665,12.134c-.822,1.6-1.726,3.187-2.686,4.711Z" fill="#fff"/>
    <path id="Trazado_8516" data-name="Trazado 8516" d="M3650.674,5826.028l-23.666-12.129a34.069,34.069,0,0,0,3.766-15.687h26.595a61.25,61.25,0,0,1-6.695,27.816Z" fill="#ccc2ff"/>
    <path id="Trazado_8517" data-name="Trazado 8517" d="M3657.369,5798.212h-26.595a34.468,34.468,0,0,0-23.233-32.591l8.655-25.146a61.071,61.071,0,0,1,41.173,57.737Z" fill="#ffd4cc"/>
    <path id="Trazado_8518" data-name="Trazado 8518" d="M3607.541,5765.621a34.405,34.405,0,0,0-11.223-1.865v-26.594a60.932,60.932,0,0,1,19.878,3.313l-8.655,25.146Z" fill="#fff"/>
    <path id="Trazado_8519" data-name="Trazado 8519" d="M3533.878,5883.423l-10.386,14.541h20.773l-10.386-14.541Z" fill="#ccc2ff"/>
    <path id="Trazado_8520" data-name="Trazado 8520" d="M3568.894,5944.154l10.386-14.543h-20.773l10.387,14.543Z" fill="#ffccd6"/>
    <path id="Trazado_8521" data-name="Trazado 8521" d="M3640.8,5841.412l-1.526-1.482a59.667,59.667,0,0,0,15.752-29.872l2.087.418a61.794,61.794,0,0,1-16.313,30.936Z" fill="#a292ed"/>
    <path id="Trazado_8522" data-name="Trazado 8522" d="M3654.568,5784.274c-.357-1.5-.78-3.015-1.258-4.489l2.026-.655c.493,1.527.932,3.092,1.3,4.652l-2.069.492Z" fill="#a292ed"/>
    <path id="Trazado_8523" data-name="Trazado 8523" d="M3649.919,5771.483a59.917,59.917,0,0,0-84.29-24.7l-1.092-1.827a62.045,62.045,0,0,1,87.284,25.573l-1.9.952Z" fill="#a292ed"/>
    <path id="Trazado_8524" data-name="Trazado 8524" d="M3596.32,5860.218a62.076,62.076,0,0,1-62.008-62.007,61.359,61.359,0,0,1,13.413-38.52l1.667,1.324a59.24,59.24,0,0,0-12.952,37.2,59.88,59.88,0,0,0,102.836,41.718l1.526,1.484a61.524,61.524,0,0,1-44.482,18.8Z" fill="#a292ed"/>
    <path id="Trazado_8525" data-name="Trazado 8525" d="M3548.565,5968.158h-43.858v-6.649h43.858v6.649Z" fill="#f0eeff"/>
    <path id="Trazado_8526" data-name="Trazado 8526" d="M3548.565,6001.668H3518.8v-6.649h29.762v6.649Z" fill="#f0eeff"/>
    <path id="Trazado_8527" data-name="Trazado 8527" d="M3548.565,5945.82h-67.309v-6.652h67.309v6.652Z" fill="#f8f7ff"/>
    <path id="Trazado_8528" data-name="Trazado 8528" d="M3548.565,5956.988h-77.9v-6.649h77.9v6.649Z" fill="#f8f7ff"/>
    <path id="Trazado_8529" data-name="Trazado 8529" d="M3548.565,5979.328h-57.123v-6.649h57.123v6.649Z" fill="#f8f7ff"/>
    <path id="Trazado_8530" data-name="Trazado 8530" d="M3548.565,5990.5h-99.972v-6.649h99.972v6.649Z" fill="#f8f7ff"/>
    <path id="Trazado_8531" data-name="Trazado 8531" d="M3548.565,6012.838h-14.687v-6.652h14.688v6.652Z" fill="#f8f7ff"/>
    <path id="Trazado_8532" data-name="Trazado 8532" d="M3549.539,5787.711l-40.139-17.046H3471.73v-2.127h38.1l.2.084,40.339,17.13-.832,1.959Z" fill="#ccc2ff"/>
    <path id="Trazado_8533" data-name="Trazado 8533" d="M3466.678,5770.665h-6.915v-2.127h6.915v2.127Z" fill="#ccc2ff"/>
    <path id="Trazado_8534" data-name="Trazado 8534" d="M3500.127,5763.617h-28.4v-2.128h28.4v2.128Z" fill="#ccc2ff"/>
    <path id="Trazado_8535" data-name="Trazado 8535" d="M3489.815,5756.571h-41.221v-2.127h41.221v2.127Z" fill="#ccc2ff"/>
    <path id="Trazado_8536" data-name="Trazado 8536" d="M3489.815,5749.523H3471.73V5747.4h18.084v2.127Z" fill="#ccc2ff"/>
    <path id="Trazado_8537" data-name="Trazado 8537" d="M3696.558,5981.553h0l-36.847-28.732c1.53,23.547,18.006,33.8,36.015,34.516q1.356-2.143,2.871-4.2l-2.036-1.587Z" fill="#40327a"/>
    <path id="Trazado_8538" data-name="Trazado 8538" d="M3709.014,5974.648h0l-14.076-55.935-25.852,18.15,35.369,35.8h0l3.234,3.276c.442-.429.871-.868,1.325-1.286Z" fill="#40327a"/>
    <path id="Trazado_8539" data-name="Trazado 8539" d="M3691.154,5886.417c.318-.29.647-.568,1-.832a13.756,13.756,0,0,1,8.021-2.749c.092,0,.184-.016.274-.016H3718.6v-32.069l-.85.169a5.318,5.318,0,0,1-6.253-4.18h0a5.32,5.32,0,0,1,4.179-6.254l1.045-.207h0a32.468,32.468,0,0,0,17.924-10.26,41.627,41.627,0,0,1,18.741-12.064l7.114,26.952a17.239,17.239,0,0,1-13.309,21.308l-5.188,1.032v15.573h6.251c.1,0,.193.013.29.016.285,0,.57.017.855.043.1.008.2,0,.3.016s.174.03.261.041h0c.252.03.506.069.757.115.126.023.254.039.378.064.1.018.19.049.285.072.205.049.41.1.618.159.147.041.3.077.447.124.1.033.2.077.311.113.169.059.336.12.5.184s.321.119.477.188c.113.049.219.1.329.156.085.042.172.07.254.111s.134.074.2.11c.149.077.3.149.444.229.1.059.2.123.3.182.165.1.329.195.488.3.044.028.087.051.131.079l0,0,17.02,11.232c.024-.239.049-.467.07-.714,1.255-15.326-10.256-16.125-8.865-31.441.318-3.483,3.818-9.029,4.9-11.147l.012-.01c.183-.368.365-.725.537-1.094a39.542,39.542,0,1,0-74.465-9.123c.077.4.164.813.264,1.216.544,2.306,2.652,8.2,2.069,11.991-2.344,15.2-13.722,13.191-16.2,28.369a32.749,32.749,0,0,0-.151,11.142l10.071-9.124,0,0Z" fill="#40327a"/>
    <path id="Trazado_8540" data-name="Trazado 8540" d="M3758.482,5974.648h0a60.512,60.512,0,0,1,2.854,6.767c4.881-3.936,7.9-9.748,7.9-17.635,0-6.633-3.579-11.48-5.4-18.306-.172-.645-.385-1.405-.608-2.219a15.941,15.941,0,0,1-3.345,1.176l-1.4,30.217Z" fill="#40327a"/>
    <path id="Trazado_8541" data-name="Trazado 8541" d="M3761.971,5941.5c.1-.043.2-.092.293-.141-.1.049-.193.1-.293.141Z" fill="#40327a"/>
    <path id="Trazado_8542" data-name="Trazado 8542" d="M3760.8,5941.964c.123-.044.246-.087.367-.133-.121.046-.244.089-.367.133Z" fill="#40327a"/>
    <path id="Trazado_8543" data-name="Trazado 8543" d="M3759.981,5942.218h0a.237.237,0,0,0,.034-.01c-.01,0-.021,0-.034.01Z" fill="#40327a"/>
    <path id="Trazado_8544" data-name="Trazado 8544" d="M3709.014,5974.647Z" fill="#f04f4f"/>
    <path id="Trazado_8545" data-name="Trazado 8545" d="M3754.66,5884.409c.1.054.208.1.305.152-.146-.08-.3-.152-.444-.229.046.023.092.052.139.077Z" fill="#ff95a9"/>
    <path id="Trazado_8546" data-name="Trazado 8546" d="M3755.879,5885.128l.005-.008c-.044-.028-.087-.051-.131-.079.044.028.085.059.126.087Z" fill="#ff95a9"/>
    <path id="Trazado_8547" data-name="Trazado 8547" d="M3750.793,5883.067c.1.018.2.028.3.048-.124-.025-.252-.041-.378-.064l.077.016Z" fill="#ff95a9"/>
    <path id="Trazado_8548" data-name="Trazado 8548" d="M3753.371,5883.816c.12.049.246.087.364.139-.156-.069-.318-.126-.477-.188.038.016.074.034.113.049Z" fill="#ff95a9"/>
    <path id="Trazado_8549" data-name="Trazado 8549" d="M3749.44,5882.882c.085.007.17.005.255.013-.1-.011-.2-.008-.3-.016.016,0,.029,0,.041,0Z" fill="#ff95a9"/>
    <path id="Trazado_8550" data-name="Trazado 8550" d="M3749.959,5882.936Z" fill="#ff95a9"/>
    <path id="Trazado_8551" data-name="Trazado 8551" d="M3752.095,5883.377c.115.034.234.057.349.093-.149-.047-.3-.083-.447-.124l.1.031Z" fill="#ff95a9"/>
    <path id="Trazado_8552" data-name="Trazado 8552" d="M3748.252,5882.82c.092,0,.182.013.274.016h.018c-.1,0-.192-.016-.29-.016Z" fill="#ff95a9"/>
    <path id="Trazado_8553" data-name="Trazado 8553" d="M3789.289,5923.323h0l19.773,3.355h0l-19.773-3.355Z" fill="#ff95a9"/>
    <path id="Trazado_8554" data-name="Trazado 8554" d="M3687.049,6019.163q.077-.839.174-1.668c.049-.421.106-.842.165-1.261a69.237,69.237,0,0,1,9.006-25.931c.046-.077.092-.152.136-.229q1.728-2.9,3.738-5.627l-1.674-1.307q-1.514,2.052-2.871,4.2a71.878,71.878,0,0,0-11.113,38.206h2.126c0-1.083.033-2.164.084-3.242.021-.424.054-.848.082-1.271.042-.624.088-1.245.147-1.867Z" fill="#fff"/>
    <path id="Trazado_8555" data-name="Trazado 8555" d="M3736.6,5974.648h-27.59c-.454.418-.883.857-1.325,1.286l2.267,2.295,10.68.508a7.447,7.447,0,1,1-3.1,14.354v.007l-11.866-4.708.005-.026a5.136,5.136,0,0,1-1.3-.729l-.006.008-4.1-3.2q-2.012,2.726-3.738,5.627c-.044.077-.09.152-.136.229a69.237,69.237,0,0,0-9.006,25.931c-.057.419-.116.84-.165,1.261q-.1.831-.174,1.668c-.059.622-.108,1.243-.147,1.867-.028.423-.061.847-.082,1.271-.048,1.078-.084,2.159-.084,3.242v5.794h63.231a14.891,14.891,0,0,0,14.892-14.892v-14.569a61.289,61.289,0,0,0-3.525-20.461,60.512,60.512,0,0,0-2.854-6.767Z" fill="#7760db"/>
    <path id="Trazado_8556" data-name="Trazado 8556" d="M3700.268,5984.447l4.1,3.2.006-.008a5.136,5.136,0,0,0,1.3.729l-.005.026,11.866,4.708v-.007a7.445,7.445,0,1,0,3.1-14.354l-10.68-.508-2.267-2.295-3.234-3.276-7.9,8.9,2.036,1.587,1.674,1.307Z" fill="#ff95a9"/>
    <path id="Trazado_8557" data-name="Trazado 8557" d="M3803.835,5861.728l-11.245,47.6-19.683-12.985-17.02-11.232,0,0-.005.008c-.041-.028-.082-.059-.126-.087-.159-.1-.323-.2-.488-.3-.1-.059-.2-.123-.3-.182s-.2-.1-.305-.152c-.047-.025-.093-.054-.139-.077-.069-.036-.134-.077-.2-.11s-.169-.069-.254-.111c-.11-.051-.216-.107-.329-.156s-.244-.09-.364-.139c-.039-.015-.075-.033-.113-.049-.167-.064-.334-.125-.5-.184-.106-.036-.206-.08-.311-.113s-.234-.059-.349-.093l-.1-.031c-.208-.059-.413-.11-.618-.159-.095-.023-.188-.054-.285-.072s-.2-.03-.3-.048l-.077-.016c-.251-.046-.505-.085-.757-.115h0c-.087-.011-.174-.031-.261-.041s-.17-.006-.255-.013c-.012,0-.025,0-.041,0-.285-.026-.57-.038-.855-.043h-.018c-.092,0-.182-.016-.274-.016h-2.763v24.61l-37.52-24.61h-7.522c-.09,0-.182.013-.274.016a13.756,13.756,0,0,0-8.021,2.749c-.351.264-.68.542-1,.832l0,0-10.071,9.124-35,31.713.008.01c-.11.1-.223.19-.329.3a10.046,10.046,0,0,0-.084,14.21,9.479,9.479,0,0,0,.983.862l-.01.011,13.062,10.184,36.847,28.732h0l7.9-8.9h0l-35.369-35.8-.149.1-1.222-1.743,29.947-21.023,1.222,1.741-3.946,2.77,14.076,55.935h49.468l1.4-30.217a15.724,15.724,0,0,1-3.022.4v.025h-8.6v-2.125h8.038v0l.095,0c.4,0,.8-.024,1.191-.062.206-.018.4-.051.606-.08s.427-.056.637-.1c.247-.044.488-.1.729-.159.144-.036.288-.07.431-.111h0c.013,0,.024-.007.034-.01.264-.074.526-.154.783-.244.123-.044.246-.087.367-.133.272-.1.544-.211.806-.332.1-.043.2-.092.293-.141.277-.133.554-.269.821-.418.064-.039.129-.08.193-.118a13.785,13.785,0,0,0,4.811-19.108l26.571,12.964.005-.007a10.024,10.024,0,0,0,14.4-7.992l-19.773-3.356h0l19.773,3.356h0l6.5-62.959h0l-11.724-1.992Z" fill="#ffd259"/>
    <path id="Trazado_8558" data-name="Trazado 8558" d="M3746.937,5855.141a5.849,5.849,0,0,1-6.877-4.6l11.478-2.278a5.853,5.853,0,0,1-4.6,6.878ZM3742,5867.247l5.188-1.032a17.239,17.239,0,0,0,13.309-21.308l-7.114-26.952a41.627,41.627,0,0,0-18.741,12.064,32.468,32.468,0,0,1-17.924,10.26h0l-1.045.207a5.32,5.32,0,0,0-4.179,6.254h0a5.318,5.318,0,0,0,6.253,4.18l.85-.169v32.069h-10.631l37.52,24.61v-24.61H3742v-15.573Z" fill="#ff95a9"/>
    <path id="Trazado_8559" data-name="Trazado 8559" d="M3740.06,5850.541a5.851,5.851,0,0,0,11.478-2.278l-11.478,2.278Z" fill="#fff"/>
    <path id="Trazado_8560" data-name="Trazado 8560" d="M3821.6,5846.907a8.979,8.979,0,0,0-7.476-13.949h-2.352v-12.785a2.659,2.659,0,1,0-5.319,0v30.47l-2.192,9.283h0l-.426,1.8,11.724,1.992.945-9.152,5.1-7.661Z" fill="#ff95a9"/>
    <path id="Trazado_8561" data-name="Trazado 8561" d="M3763.085,5940.94c-.267.149-.544.285-.821.418-.1.049-.193.1-.293.141-.262.121-.534.229-.806.332-.121.046-.244.089-.367.133-.257.09-.519.17-.783.244a.237.237,0,0,1-.034.01c-.143.041-.287.075-.431.111-.241.059-.482.115-.729.159-.21.041-.424.069-.637.1s-.4.062-.606.08c-.395.038-.793.059-1.191.062l-.095,0v0h-8.038v2.125h8.6v-.025a15.724,15.724,0,0,0,3.022-.4,15.941,15.941,0,0,0,3.345-1.176,15.754,15.754,0,0,0,3.211-2.046l-1.35-1.635a13.774,13.774,0,0,1-1.807,1.248c-.064.038-.129.079-.193.118Z" fill="#fff"/>
    <path id="Trazado_8562" data-name="Trazado 8562" d="M3698.884,5915.942l-1.222-1.74-29.947,21.023,1.222,1.743.149-.105,25.852-18.15,3.946-2.771Z" fill="#fff"/>
    <path id="Trazado_8563" data-name="Trazado 8563" d="M3815.226,6019.415h-84.562v5.542h84.562v-5.542Z" fill="#40327a"/>
    <path id="Trazado_8564" data-name="Trazado 8564" d="M3926.744,5941.361l-13.34,64.733-.1.478-3.784,18.392h-118.17l17.221-83.6Z" fill="#fff"/>
    <path id="Trazado_8565" data-name="Trazado 8565" d="M3930.9,5941.361l-13.339,64.733-.1.478-3.784,18.392H3796.516l17.221-83.6Z" fill="#b3a4f5"/>
    <path id="Trazado_8566" data-name="Trazado 8566" d="M3909.525,6024.963h0Z" fill="#ddd6ff"/>
    <path id="Trazado_8567" data-name="Trazado 8567" d="M3903.182,6024.963H3796.516l121.048-18.869-.1.478-3.784,18.392h-10.5Z" fill="#ddd6ff"/>
    <path id="Trazado_8568" data-name="Trazado 8568" d="M3872.252,5983.155a11.043,11.043,0,0,1-10.3,8.544c-4.719,0-7.756-3.825-6.786-8.544a11.046,11.046,0,0,1,10.3-8.543c4.719,0,7.756,3.825,6.783,8.543Z" fill="#fff"/>
    <path id="Trazado_8569" data-name="Trazado 8569" d="M3962.377,6024.963h0Z" fill="#b3a4f5"/>
    <path id="Trazado_8570" data-name="Trazado 8570" d="M3899.113,6024.963H3479.872V6035.6h601.045v-10.639h-181.8Z" fill="#b3a4f5"/>
    <path id="Trazado_8571" data-name="Trazado 8571" d="M3929.06,6024.963h0Z" fill="#b3a4f5"/>
    <path id="Trazado_8572" data-name="Trazado 8572" d="M3794.138,6035.6h0Z" fill="#f8f7ff"/>
    <path id="Trazado_8573" data-name="Trazado 8573" d="M3794.138,6036.665h-191v-2.128h191v2.128Z" fill="#40327a"/>
    <path id="Trazado_8574" data-name="Trazado 8574" d="M3577.027,6035.6h0Z" fill="#f8f7ff"/>
    <path id="Trazado_8575" data-name="Trazado 8575" d="M3577.027,6036.665h-49.516v-2.128h49.516v2.128Z" fill="#40327a"/>
    <path id="Trazado_8576" data-name="Trazado 8576" d="M3593.685,6035.6h0Z" fill="#f8f7ff"/>
    <path id="Trazado_8577" data-name="Trazado 8577" d="M3593.685,6036.665h-7.946v-2.128h7.946v2.128Z" fill="#40327a"/>
    <path id="Trazado_8578" data-name="Trazado 8578" d="M3979.7,6035.6h0Z" fill="#f8f7ff"/>
    <path id="Trazado_8579" data-name="Trazado 8579" d="M3979.7,6036.665h-129.73v-2.128H3979.7v2.128Z" fill="#40327a"/>
    <path id="Trazado_8580" data-name="Trazado 8580" d="M3579.805,6052.762h-38.323v-2.66h38.323v2.66Z" fill="#f2f0ff"/>
    <path id="Trazado_8581" data-name="Trazado 8581" d="M3593.68,6052.762h-5.547v-2.66h5.547v2.66Z" fill="#f2f0ff"/>
    <path id="Trazado_8582" data-name="Trazado 8582" d="M3732.171,6052.762H3604.583v-2.66h127.588v2.66Z" fill="#f2f0ff"/>
    <path id="Trazado_8583" data-name="Trazado 8583" d="M3801.126,6052.762h-54.733v-2.66h54.733v2.66Z" fill="#f2f0ff"/>
    <path id="Trazado_8584" data-name="Trazado 8584" d="M4008.107,6052.762H3808.246v-2.66h199.862v2.66Z" fill="#f2f0ff"/>
    <path id="Trazado_8585" data-name="Trazado 8585" d="M4027.629,6052.762h-6.213v-2.66h6.213v2.66Z" fill="#f2f0ff"/>
    <path id="Trazado_8586" data-name="Trazado 8586" d="M3920.57,5996.772l-2.082-.429,11.111-53.919H3813.737V5940.3h118.473l-11.64,56.474Z" fill="#8b77e8"/>
    <path id="Trazado_8587" data-name="Trazado 8587" d="M3917.194,6013.177l-2.082-.429,1.866-9.075,2.084.429-1.869,9.075Z" fill="#8b77e8"/>
  </g>
</svg>
